u2194_ 600 - 60.ufo
<glyph name="exclam" format="1">
  <advance width="220"/>
  <unicode hex="0021"/>
  <outline>
    <contour>
      <point x="110" y="861" type="curve" smooth="yes"/>
      <point x="78" y="861"/>
      <point x="50" y="833"/>
      <point x="50" y="801" type="curve" smooth="yes"/>
      <point x="50" y="201" type="line" smooth="yes"/>
      <point x="50" y="169"/>
      <point x="78" y="141"/>
      <point x="110" y="141" type="curve" smooth="yes"/>
      <point x="142" y="141"/>
      <point x="170" y="169"/>
      <point x="170" y="201" type="curve" smooth="yes"/>
      <point x="170" y="801" type="line" smooth="yes"/>
      <point x="170" y="833"/>
      <point x="142" y="861"/>
    </contour>
    <contour>
      <point x="110" y="78" type="curve" smooth="yes"/>
      <point x="78" y="78"/>
      <point x="50" y="50"/>
      <point x="50" y="18" type="curve" smooth="yes"/>
      <point x="50" y="1" type="line" smooth="yes"/>
      <point x="50" y="-31"/>
      <point x="78" y="-59"/>
      <point x="110" y="-59" type="curve" smooth="yes"/>
      <point x="142" y="-59"/>
      <point x="170" y="-31"/>
      <point x="170" y="1" type="curve" smooth="yes"/>
      <point x="170" y="18" type="line" smooth="yes"/>
      <point x="170" y="50"/>
      <point x="142" y="78"/>
    </contour>
  </outline>
</glyph>
<glyph name="numbersign" format="1">
  <advance width="820"/>
  <unicode hex="0023"/>
  <outline>
    <contour>
      <point x="483" y="539" type="line"/>
      <point x="413" y="259" type="line"/>
      <point x="337" y="259" type="line"/>
      <point x="407" y="539" type="line"/>
    </contour>
    <contour>
      <point x="468" y="-16" type="curve" smooth="yes"/>
      <point x="507" y="139" type="line"/>
      <point x="610" y="139" type="line" smooth="yes"/>
      <point x="642" y="139"/>
      <point x="670" y="167"/>
      <point x="670" y="199" type="curve" smooth="yes"/>
      <point x="670" y="231"/>
      <point x="642" y="259"/>
      <point x="610" y="259" type="curve" smooth="yes"/>
      <point x="537" y="259" type="line"/>
      <point x="607" y="539" type="line"/>
      <point x="710" y="539" type="line" smooth="yes"/>
      <point x="742" y="539"/>
      <point x="770" y="567"/>
      <point x="770" y="599" type="curve" smooth="yes"/>
      <point x="770" y="631"/>
      <point x="742" y="659"/>
      <point x="710" y="659" type="curve" smooth="yes"/>
      <point x="637" y="659" type="line"/>
      <point x="668" y="784" type="line" smooth="yes"/>
      <point x="676" y="816"/>
      <point x="656" y="849"/>
      <point x="625" y="857" type="curve" smooth="yes"/>
      <point x="593" y="865"/>
      <point x="560" y="845"/>
      <point x="552" y="814" type="curve" smooth="yes"/>
      <point x="513" y="659" type="line"/>
      <point x="437" y="659" type="line"/>
      <point x="468" y="784" type="line" smooth="yes"/>
      <point x="476" y="816"/>
      <point x="456" y="849"/>
      <point x="425" y="857" type="curve" smooth="yes"/>
      <point x="393" y="865"/>
      <point x="360" y="845"/>
      <point x="352" y="814" type="curve" smooth="yes"/>
      <point x="313" y="659" type="line"/>
      <point x="204" y="659" type="line" smooth="yes"/>
      <point x="172" y="659"/>
      <point x="144" y="631"/>
      <point x="144" y="599" type="curve" smooth="yes"/>
      <point x="144" y="567"/>
      <point x="172" y="539"/>
      <point x="204" y="539" type="curve" smooth="yes"/>
      <point x="283" y="539" type="line"/>
      <point x="213" y="259" type="line"/>
      <point x="110" y="259" type="line" smooth="yes"/>
      <point x="78" y="259"/>
      <point x="50" y="231"/>
      <point x="50" y="199" type="curve" smooth="yes"/>
      <point x="50" y="167"/>
      <point x="78" y="139"/>
      <point x="110" y="139" type="curve" smooth="yes"/>
      <point x="183" y="139" type="line"/>
      <point x="152" y="14" type="line" smooth="yes"/>
      <point x="144" y="-18"/>
      <point x="164" y="-51"/>
      <point x="195" y="-59" type="curve" smooth="yes"/>
      <point x="227" y="-67"/>
      <point x="260" y="-47"/>
      <point x="268" y="-16" type="curve" smooth="yes"/>
      <point x="307" y="139" type="line"/>
      <point x="383" y="139" type="line"/>
      <point x="352" y="14" type="line" smooth="yes"/>
      <point x="344" y="-18"/>
      <point x="364" y="-51"/>
      <point x="395" y="-59" type="curve" smooth="yes"/>
      <point x="427" y="-67"/>
      <point x="460" y="-47"/>
    </contour>
  </outline>
</glyph>
<glyph name="dollar" format="1">
  <advance width="821"/>
  <unicode hex="0024"/>
  <outline>
    <contour>
      <point x="351" y="393" type="line"/>
      <point x="331" y="405" type="line"/>
      <point x="351" y="412" type="line"/>
    </contour>
    <contour>
      <point x="471" y="-1" type="curve" smooth="yes"/>
      <point x="471" y="89" type="line"/>
      <point x="696" y="58" type="line" smooth="yes"/>
      <point x="765" y="49"/>
      <point x="795" y="134"/>
      <point x="735" y="169" type="curve" smooth="yes"/>
      <point x="471" y="323" type="line"/>
      <point x="471" y="453" type="line"/>
      <point x="730" y="542" type="line" smooth="yes"/>
      <point x="761" y="553"/>
      <point x="778" y="588"/>
      <point x="768" y="618" type="curve" smooth="yes"/>
      <point x="757" y="649"/>
      <point x="722" y="666"/>
      <point x="692" y="656" type="curve" smooth="yes"/>
      <point x="471" y="580" type="line"/>
      <point x="471" y="799" type="line" smooth="yes"/>
      <point x="471" y="831"/>
      <point x="443" y="859"/>
      <point x="411" y="859" type="curve" smooth="yes"/>
      <point x="379" y="859"/>
      <point x="351" y="831"/>
      <point x="351" y="799" type="curve" smooth="yes"/>
      <point x="351" y="539" type="line"/>
      <point x="168" y="477" type="line" smooth="yes"/>
      <point x="115" y="458"/>
      <point x="109" y="396"/>
      <point x="157" y="368" type="curve" smooth="yes"/>
      <point x="351" y="254" type="line"/>
      <point x="351" y="227" type="line"/>
      <point x="118" y="258" type="line" smooth="yes"/>
      <point x="86" y="263"/>
      <point x="55" y="239"/>
      <point x="51" y="207" type="curve" smooth="yes"/>
      <point x="46" y="175"/>
      <point x="70" y="144"/>
      <point x="102" y="140" type="curve" smooth="yes"/>
      <point x="351" y="105" type="line"/>
      <point x="351" y="-1" type="line" smooth="yes"/>
      <point x="351" y="-33"/>
      <point x="379" y="-61"/>
      <point x="411" y="-61" type="curve" smooth="yes"/>
      <point x="443" y="-61"/>
      <point x="471" y="-33"/>
    </contour>
  </outline>
</glyph>
<glyph name="asterisk" format="1">
  <advance width="619"/>
  <unicode hex="002A"/>
  <outline>
    <contour>
      <point x="351" y="744" type="curve" smooth="yes"/>
      <point x="329" y="767"/>
      <point x="289" y="767"/>
      <point x="267" y="744" type="curve" smooth="yes"/>
      <point x="67" y="544" type="line" smooth="yes"/>
      <point x="44" y="522"/>
      <point x="44" y="482"/>
      <point x="67" y="460" type="curve" smooth="yes"/>
      <point x="89" y="437"/>
      <point x="129" y="437"/>
      <point x="151" y="460" type="curve" smooth="yes"/>
      <point x="351" y="660" type="line" smooth="yes"/>
      <point x="374" y="682"/>
      <point x="374" y="722"/>
    </contour>
    <contour>
      <point x="199" y="250" type="curve" smooth="yes"/>
      <point x="354" y="341" type="line"/>
      <point x="411" y="266" type="line" smooth="yes"/>
      <point x="430" y="240"/>
      <point x="469" y="235"/>
      <point x="495" y="254" type="curve" smooth="yes"/>
      <point x="521" y="273"/>
      <point x="526" y="312"/>
      <point x="507" y="338" type="curve" smooth="yes"/>
      <point x="458" y="403" type="line"/>
      <point x="539" y="450" type="line" smooth="yes"/>
      <point x="567" y="467"/>
      <point x="577" y="504"/>
      <point x="561" y="532" type="curve" smooth="yes"/>
      <point x="544" y="560"/>
      <point x="507" y="570"/>
      <point x="479" y="554" type="curve" smooth="yes"/>
      <point x="386" y="499" type="line"/>
      <point x="357" y="538" type="line" smooth="yes"/>
      <point x="338" y="564"/>
      <point x="299" y="569"/>
      <point x="273" y="550" type="curve" smooth="yes"/>
      <point x="247" y="531"/>
      <point x="242" y="492"/>
      <point x="261" y="466" type="curve" smooth="yes"/>
      <point x="282" y="438" type="line"/>
      <point x="139" y="354" type="line" smooth="yes"/>
      <point x="111" y="337"/>
      <point x="101" y="300"/>
      <point x="117" y="272" type="curve" smooth="yes"/>
      <point x="134" y="244"/>
      <point x="171" y="234"/>
    </contour>
  </outline>
</glyph>
<glyph name="plus" format="1">
  <advance width="620"/>
  <unicode hex="002B"/>
  <outline>
    <contour>
      <point x="310" y="62" type="curve" smooth="yes"/>
      <point x="342" y="62"/>
      <point x="370" y="90"/>
      <point x="370" y="122" type="curve" smooth="yes"/>
      <point x="370" y="262" type="line"/>
      <point x="510" y="262" type="line" smooth="yes"/>
      <point x="542" y="262"/>
      <point x="570" y="290"/>
      <point x="570" y="322" type="curve" smooth="yes"/>
      <point x="570" y="354"/>
      <point x="542" y="382"/>
      <point x="510" y="382" type="curve" smooth="yes"/>
      <point x="370" y="382" type="line"/>
      <point x="370" y="522" type="line" smooth="yes"/>
      <point x="370" y="554"/>
      <point x="342" y="582"/>
      <point x="310" y="582" type="curve" smooth="yes"/>
      <point x="278" y="582"/>
      <point x="250" y="554"/>
      <point x="250" y="522" type="curve" smooth="yes"/>
      <point x="250" y="382" type="line"/>
      <point x="110" y="382" type="line" smooth="yes"/>
      <point x="78" y="382"/>
      <point x="50" y="354"/>
      <point x="50" y="322" type="curve" smooth="yes"/>
      <point x="50" y="290"/>
      <point x="78" y="262"/>
      <point x="110" y="262" type="curve" smooth="yes"/>
      <point x="250" y="262" type="line"/>
      <point x="250" y="122" type="line" smooth="yes"/>
      <point x="250" y="90"/>
      <point x="278" y="62"/>
    </contour>
  </outline>
</glyph>
<glyph name="zero" format="1">
  <advance width="820"/>
  <unicode hex="0030"/>
  <outline>
    <contour>
      <point x="259" y="300" type="line"/>
      <point x="193" y="212" type="line"/>
      <point x="175" y="231" type="line"/>
      <point x="269" y="690" type="line"/>
      <point x="453" y="555" type="line"/>
    </contour>
    <contour>
      <point x="355" y="227" type="line"/>
      <point x="550" y="485" type="line"/>
      <point x="621" y="433" type="line"/>
      <point x="310" y="91" type="line"/>
      <point x="277" y="125" type="line"/>
    </contour>
    <contour>
      <point x="354" y="-41" type="curve" smooth="yes"/>
      <point x="358" y="-37"/>
      <point x="361" y="-33"/>
      <point x="364" y="-28" type="curve"/>
      <point x="754" y="402" type="line" smooth="yes"/>
      <point x="779" y="429"/>
      <point x="775" y="469"/>
      <point x="745" y="490" type="curve" smooth="yes"/>
      <point x="623" y="580" type="line"/>
      <point x="712" y="698" type="line" smooth="yes"/>
      <point x="731" y="724"/>
      <point x="726" y="762"/>
      <point x="700" y="782" type="curve" smooth="yes"/>
      <point x="674" y="801"/>
      <point x="636" y="796"/>
      <point x="616" y="770" type="curve" smooth="yes"/>
      <point x="526" y="651" type="line"/>
      <point x="265" y="842" type="line" smooth="yes"/>
      <point x="227" y="870"/>
      <point x="180" y="852"/>
      <point x="171" y="806" type="curve" smooth="yes"/>
      <point x="51" y="224" type="line" smooth="yes"/>
      <point x="48" y="207"/>
      <point x="55" y="183"/>
      <point x="67" y="170" type="curve" smooth="yes"/>
      <point x="120" y="115" type="line"/>
      <point x="102" y="92" type="line" smooth="yes"/>
      <point x="83" y="66"/>
      <point x="88" y="28"/>
      <point x="114" y="8" type="curve" smooth="yes"/>
      <point x="140" y="-11"/>
      <point x="178" y="-6"/>
      <point x="198" y="20" type="curve" smooth="yes"/>
      <point x="204" y="28" type="line"/>
      <point x="259" y="-30" type="line"/>
      <point x="262" y="-34"/>
      <point x="265" y="-39"/>
      <point x="270" y="-42" type="curve" smooth="yes"/>
      <point x="281" y="-53"/>
      <point x="295" y="-58"/>
      <point x="310" y="-58" type="curve"/>
      <point x="310" y="-58"/>
      <point x="311" y="-58"/>
      <point x="311" y="-58" type="curve"/>
      <point x="312" y="-58"/>
      <point x="312" y="-58"/>
      <point x="312" y="-58" type="curve"/>
      <point x="327" y="-58"/>
      <point x="342" y="-52"/>
    </contour>
  </outline>
</glyph>
<glyph name="one" format="1">
  <advance width="820"/>
  <unicode hex="0031"/>
  <outline>
    <contour>
      <point x="110" y="-59" type="curve" smooth="yes"/>
      <point x="710" y="-59" type="line" smooth="yes"/>
      <point x="742" y="-59"/>
      <point x="770" y="-31"/>
      <point x="770" y="1" type="curve" smooth="yes"/>
      <point x="770" y="33"/>
      <point x="742" y="61"/>
      <point x="710" y="61" type="curve" smooth="yes"/>
      <point x="295" y="61" type="line"/>
      <point x="467" y="541" type="line" smooth="yes"/>
      <point x="480" y="579"/>
      <point x="458" y="615"/>
      <point x="418" y="620" type="curve" smooth="yes"/>
      <point x="118" y="660" type="line" smooth="yes"/>
      <point x="86" y="665"/>
      <point x="55" y="641"/>
      <point x="51" y="609" type="curve" smooth="yes"/>
      <point x="46" y="577"/>
      <point x="70" y="546"/>
      <point x="102" y="542" type="curve" smooth="yes"/>
      <point x="329" y="511" type="line"/>
      <point x="168" y="61" type="line"/>
      <point x="110" y="61" type="line" smooth="yes"/>
      <point x="78" y="61"/>
      <point x="50" y="33"/>
      <point x="50" y="1" type="curve" smooth="yes"/>
      <point x="50" y="-31"/>
      <point x="78" y="-59"/>
    </contour>
  </outline>
</glyph>
<glyph name="two" format="1">
  <advance width="823"/>
  <unicode hex="0032"/>
  <outline>
    <contour>
      <point x="113" y="-60" type="curve" smooth="yes"/>
      <point x="713" y="-60" type="line" smooth="yes"/>
      <point x="745" y="-60"/>
      <point x="773" y="-32"/>
      <point x="773" y="0" type="curve" smooth="yes"/>
      <point x="773" y="32"/>
      <point x="745" y="60"/>
      <point x="713" y="60" type="curve" smooth="yes"/>
      <point x="269" y="60" type="line"/>
      <point x="597" y="357" type="line" smooth="yes"/>
      <point x="631" y="388"/>
      <point x="623" y="437"/>
      <point x="581" y="456" type="curve" smooth="yes"/>
      <point x="138" y="655" type="line" smooth="yes"/>
      <point x="108" y="668"/>
      <point x="72" y="654"/>
      <point x="58" y="625" type="curve" smooth="yes"/>
      <point x="45" y="595"/>
      <point x="59" y="559"/>
      <point x="88" y="545" type="curve" smooth="yes"/>
      <point x="448" y="384" type="line"/>
      <point x="73" y="44" type="line" smooth="yes"/>
      <point x="28" y="4"/>
      <point x="53" y="-60"/>
    </contour>
  </outline>
</glyph>
<glyph name="three" format="1">
  <advance width="820"/>
  <unicode hex="0033"/>
  <outline>
    <contour>
      <point x="669" y="3" type="curve" smooth="yes"/>
      <point x="769" y="591" type="line" smooth="yes"/>
      <point x="776" y="629"/>
      <point x="749" y="661"/>
      <point x="710" y="661" type="curve" smooth="yes"/>
      <point x="110" y="661" type="line" smooth="yes"/>
      <point x="78" y="661"/>
      <point x="50" y="633"/>
      <point x="50" y="601" type="curve" smooth="yes"/>
      <point x="50" y="569"/>
      <point x="78" y="541"/>
      <point x="110" y="541" type="curve" smooth="yes"/>
      <point x="639" y="541" type="line"/>
      <point x="563" y="94" type="line"/>
      <point x="131" y="257" type="line" smooth="yes"/>
      <point x="101" y="269"/>
      <point x="65" y="252"/>
      <point x="54" y="222" type="curve" smooth="yes"/>
      <point x="42" y="192"/>
      <point x="59" y="156"/>
      <point x="89" y="145" type="curve" smooth="yes"/>
      <point x="588" y="-43" type="line" smooth="yes"/>
      <point x="625" y="-57"/>
      <point x="662" y="-36"/>
    </contour>
  </outline>
</glyph>
<glyph name="four" format="1">
  <advance width="781"/>
  <unicode hex="0034"/>
  <outline>
    <contour>
      <point x="671" y="-59" type="curve" smooth="yes"/>
      <point x="703" y="-59"/>
      <point x="731" y="-31"/>
      <point x="731" y="1" type="curve" smooth="yes"/>
      <point x="731" y="600" type="line" smooth="yes"/>
      <point x="731" y="632"/>
      <point x="703" y="660"/>
      <point x="671" y="660" type="curve" smooth="yes"/>
      <point x="639" y="660"/>
      <point x="611" y="632"/>
      <point x="611" y="600" type="curve" smooth="yes"/>
      <point x="611" y="185" type="line"/>
      <point x="196" y="333" type="line"/>
      <point x="424" y="772" type="line" smooth="yes"/>
      <point x="439" y="801"/>
      <point x="427" y="838"/>
      <point x="399" y="853" type="curve" smooth="yes"/>
      <point x="370" y="868"/>
      <point x="333" y="856"/>
      <point x="318" y="828" type="curve" smooth="yes"/>
      <point x="58" y="328" type="line" smooth="yes"/>
      <point x="40" y="294"/>
      <point x="55" y="256"/>
      <point x="91" y="243" type="curve" smooth="yes"/>
      <point x="611" y="58" type="line"/>
      <point x="611" y="1" type="line" smooth="yes"/>
      <point x="611" y="-31"/>
      <point x="639" y="-59"/>
    </contour>
  </outline>
</glyph>
<glyph name="five" format="1">
  <advance width="823"/>
  <unicode hex="0035"/>
  <outline>
    <contour>
      <point x="110" y="141" type="curve" smooth="yes"/>
      <point x="710" y="141" type="line" smooth="yes"/>
      <point x="781" y="141"/>
      <point x="797" y="234"/>
      <point x="730" y="258" type="curve" smooth="yes"/>
      <point x="264" y="424" type="line"/>
      <point x="613" y="741" type="line"/>
      <point x="710" y="741" type="line" smooth="yes"/>
      <point x="742" y="741"/>
      <point x="770" y="769"/>
      <point x="770" y="801" type="curve" smooth="yes"/>
      <point x="770" y="833"/>
      <point x="742" y="861"/>
      <point x="710" y="861" type="curve" smooth="yes"/>
      <point x="590" y="861" type="line" smooth="yes"/>
      <point x="577" y="861"/>
      <point x="559" y="854"/>
      <point x="550" y="845" type="curve" smooth="yes"/>
      <point x="110" y="445" type="line" smooth="yes"/>
      <point x="73" y="412"/>
      <point x="84" y="361"/>
      <point x="130" y="344" type="curve" smooth="yes"/>
      <point x="364" y="261" type="line"/>
      <point x="110" y="261" type="line" smooth="yes"/>
      <point x="78" y="261"/>
      <point x="50" y="233"/>
      <point x="50" y="201" type="curve" smooth="yes"/>
      <point x="50" y="169"/>
      <point x="78" y="141"/>
    </contour>
  </outline>
</glyph>
<glyph name="six" format="1">
  <advance width="823"/>
  <unicode hex="0036"/>
  <outline>
    <contour>
      <point x="680" y="419" type="curve" smooth="yes"/>
      <point x="382" y="560" type="line"/>
      <point x="671" y="559" type="line"/>
      <point x="682" y="548"/>
      <point x="698" y="541"/>
      <point x="714" y="541" type="curve" smooth="yes"/>
      <point x="747" y="542"/>
      <point x="774" y="570"/>
      <point x="773" y="602" type="curve" smooth="yes"/>
      <point x="773" y="620" type="line" smooth="yes"/>
      <point x="772" y="652"/>
      <point x="745" y="679"/>
      <point x="713" y="679" type="curve" smooth="yes"/>
      <point x="113" y="682" type="line" smooth="yes"/>
      <point x="65" y="682"/>
      <point x="41" y="639"/>
      <point x="53" y="604" type="curve"/>
      <point x="52" y="581"/>
      <point x="66" y="556"/>
      <point x="89" y="546" type="curve" smooth="yes"/>
      <point x="631" y="310" type="line" smooth="yes"/>
      <point x="703" y="278"/>
      <point x="752" y="385"/>
    </contour>
  </outline>
</glyph>
<glyph name="seven" format="1">
  <advance width="747"/>
  <unicode hex="0037"/>
  <outline>
    <contour>
      <point x="360" y="-36" type="curve" smooth="yes"/>
      <point x="687" y="455" type="line" smooth="yes"/>
      <point x="706" y="484"/>
      <point x="698" y="522"/>
      <point x="668" y="540" type="curve" smooth="yes"/>
      <point x="161" y="848" type="line" smooth="yes"/>
      <point x="153" y="853"/>
      <point x="139" y="857"/>
      <point x="130" y="857" type="curve" smooth="yes"/>
      <point x="110" y="857" type="line" smooth="yes"/>
      <point x="78" y="857"/>
      <point x="50" y="829"/>
      <point x="50" y="797" type="curve" smooth="yes"/>
      <point x="50" y="765"/>
      <point x="78" y="737"/>
      <point x="110" y="737" type="curve" smooth="yes"/>
      <point x="113" y="737" type="line"/>
      <point x="552" y="470" type="line"/>
      <point x="260" y="30" type="line" smooth="yes"/>
      <point x="242" y="3"/>
      <point x="250" y="-35"/>
      <point x="277" y="-53" type="curve" smooth="yes"/>
      <point x="304" y="-71"/>
      <point x="342" y="-63"/>
    </contour>
  </outline>
</glyph>
<glyph name="nine" format="1">
  <advance width="823"/>
  <unicode hex="0039"/>
  <outline>
    <contour>
      <point x="710" y="119" type="line" smooth="yes"/>
      <point x="758" y="119"/>
      <point x="782" y="162"/>
      <point x="770" y="197" type="curve"/>
      <point x="771" y="220"/>
      <point x="757" y="245"/>
      <point x="734" y="255" type="curve" smooth="yes"/>
      <point x="192" y="491" type="line" smooth="yes"/>
      <point x="120" y="523"/>
      <point x="71" y="416"/>
      <point x="143" y="382" type="curve" smooth="yes"/>
      <point x="441" y="241" type="line"/>
      <point x="152" y="242" type="line"/>
      <point x="141" y="253"/>
      <point x="125" y="260"/>
      <point x="109" y="260" type="curve" smooth="yes"/>
      <point x="76" y="259"/>
      <point x="49" y="231"/>
      <point x="50" y="199" type="curve" smooth="yes"/>
      <point x="50" y="181" type="line" smooth="yes"/>
      <point x="51" y="149"/>
      <point x="78" y="122"/>
      <point x="110" y="122" type="curve" smooth="yes"/>
    </contour>
  </outline>
</glyph>
<glyph name="colon" format="1">
  <advance width="222"/>
  <unicode hex="003A"/>
  <outline>
    <contour>
      <point x="110" y="523" type="curve" smooth="yes"/>
      <point x="142" y="523"/>
      <point x="170" y="551"/>
      <point x="170" y="583" type="curve" smooth="yes"/>
      <point x="170" y="592" type="line" smooth="yes"/>
      <point x="170" y="624"/>
      <point x="142" y="652"/>
      <point x="110" y="652" type="curve" smooth="yes"/>
      <point x="78" y="652"/>
      <point x="50" y="624"/>
      <point x="50" y="592" type="curve" smooth="yes"/>
      <point x="50" y="583" type="line" smooth="yes"/>
      <point x="50" y="551"/>
      <point x="78" y="523"/>
    </contour>
    <contour>
      <point x="112" y="-59" type="curve" smooth="yes"/>
      <point x="144" y="-59"/>
      <point x="172" y="-31"/>
      <point x="172" y="1" type="curve" smooth="yes"/>
      <point x="172" y="5" type="line" smooth="yes"/>
      <point x="172" y="37"/>
      <point x="144" y="65"/>
      <point x="112" y="65" type="curve" smooth="yes"/>
      <point x="80" y="65"/>
      <point x="52" y="37"/>
      <point x="52" y="5" type="curve" smooth="yes"/>
      <point x="52" y="1" type="line" smooth="yes"/>
      <point x="52" y="-31"/>
      <point x="80" y="-59"/>
    </contour>
  </outline>
</glyph>
<glyph name="less" format="1">
  <advance width="220"/>
  <unicode hex="003C"/>
  <outline>
    <contour>
      <point x="110" y="563" type="curve" smooth="yes"/>
      <point x="78" y="563"/>
      <point x="50" y="535"/>
      <point x="50" y="503" type="curve" smooth="yes"/>
      <point x="50" y="103" type="line" smooth="yes"/>
      <point x="50" y="71"/>
      <point x="78" y="43"/>
      <point x="110" y="43" type="curve" smooth="yes"/>
      <point x="142" y="43"/>
      <point x="170" y="71"/>
      <point x="170" y="103" type="curve" smooth="yes"/>
      <point x="170" y="503" type="line" smooth="yes"/>
      <point x="170" y="535"/>
      <point x="142" y="563"/>
    </contour>
  </outline>
</glyph>
<glyph name="question" format="1">
  <advance width="693"/>
  <unicode hex="003F"/>
  <outline>
    <contour>
      <point x="362" y="173" type="curve" smooth="yes"/>
      <point x="635" y="703" type="line" smooth="yes"/>
      <point x="661" y="754"/>
      <point x="620" y="803"/>
      <point x="565" y="788" type="curve" smooth="yes"/>
      <point x="94" y="657" type="line" smooth="yes"/>
      <point x="63" y="648"/>
      <point x="44" y="614"/>
      <point x="52" y="583" type="curve" smooth="yes"/>
      <point x="61" y="552"/>
      <point x="95" y="533"/>
      <point x="126" y="541" type="curve" smooth="yes"/>
      <point x="465" y="636" type="line"/>
      <point x="256" y="227" type="line" smooth="yes"/>
      <point x="241" y="199"/>
      <point x="253" y="161"/>
      <point x="282" y="147" type="curve" smooth="yes"/>
      <point x="310" y="132"/>
      <point x="348" y="144"/>
    </contour>
    <contour>
      <point x="309" y="-60" type="curve" smooth="yes"/>
      <point x="341" y="-60"/>
      <point x="369" y="-32"/>
      <point x="369" y="0" type="curve" smooth="yes"/>
      <point x="369" y="11" type="line" smooth="yes"/>
      <point x="369" y="43"/>
      <point x="341" y="71"/>
      <point x="309" y="71" type="curve" smooth="yes"/>
      <point x="277" y="71"/>
      <point x="249" y="43"/>
      <point x="249" y="11" type="curve" smooth="yes"/>
      <point x="249" y="0" type="line" smooth="yes"/>
      <point x="249" y="-32"/>
      <point x="277" y="-60"/>
    </contour>
  </outline>
</glyph>
<glyph name="at" format="1">
  <advance width="710"/>
  <unicode hex="0040"/>
  <outline>
    <contour>
      <point x="451" y="563" type="line" smooth="yes"/>
      <point x="416" y="166" type="line" smooth="yes"/>
      <point x="415" y="161"/>
      <point x="415" y="156"/>
      <point x="416" y="153" type="curve"/>
      <point x="201" y="390" type="line"/>
      <point x="452" y="568" type="line"/>
    </contour>
    <contour>
      <point x="551" y="-87" type="curve" smooth="yes"/>
      <point x="575" y="-65"/>
      <point x="577" y="-26"/>
      <point x="556" y="-2" type="curve" smooth="yes"/>
      <point x="463" y="101" type="line"/>
      <point x="473" y="99"/>
      <point x="483" y="99"/>
      <point x="492" y="101" type="curve"/>
      <point x="498" y="99"/>
      <point x="504" y="98"/>
      <point x="511" y="98" type="curve" smooth="yes"/>
      <point x="543" y="98"/>
      <point x="571" y="126"/>
      <point x="571" y="158" type="curve" smooth="yes"/>
      <point x="571" y="321" type="line"/>
      <point x="659" y="734" type="line" smooth="yes"/>
      <point x="671" y="792"/>
      <point x="614" y="830"/>
      <point x="566" y="795" type="curve" smooth="yes"/>
      <point x="76" y="449" type="line" smooth="yes"/>
      <point x="46" y="428"/>
      <point x="42" y="388"/>
      <point x="66" y="360" type="curve" smooth="yes"/>
      <point x="466" y="-82" type="line" smooth="yes"/>
      <point x="488" y="-106"/>
      <point x="527" y="-108"/>
    </contour>
  </outline>
</glyph>
<glyph name="A" format="1">
  <advance width="808"/>
  <unicode hex="0041"/>
  <outline>
    <contour>
      <point x="698" y="-64" type="curve" smooth="yes"/>
      <point x="730" y="-64"/>
      <point x="758" y="-36"/>
      <point x="758" y="-4" type="curve" smooth="yes"/>
      <point x="758" y="360" type="line" smooth="yes"/>
      <point x="758" y="373"/>
      <point x="751" y="392"/>
      <point x="742" y="401" type="curve" smooth="yes"/>
      <point x="340" y="837" type="line" smooth="yes"/>
      <point x="306" y="873"/>
      <point x="254" y="862"/>
      <point x="239" y="815" type="curve" smooth="yes"/>
      <point x="53" y="245" type="line" smooth="yes"/>
      <point x="38" y="197"/>
      <point x="74" y="157"/>
      <point x="122" y="167" type="curve" smooth="yes"/>
      <point x="638" y="273" type="line"/>
      <point x="638" y="-4" type="line" smooth="yes"/>
      <point x="638" y="-36"/>
      <point x="666" y="-64"/>
    </contour>
    <contour>
      <point x="199" y="305" type="line"/>
      <point x="321" y="680" type="line"/>
      <point x="593" y="386" type="line"/>
    </contour>
  </outline>
</glyph>
<glyph name="E" format="1">
  <advance width="769"/>
  <unicode hex="0045"/>
  <outline>
    <contour>
      <point x="504" y="-43" type="curve" smooth="yes"/>
      <point x="702" y="153" type="line" smooth="yes"/>
      <point x="725" y="176"/>
      <point x="725" y="215"/>
      <point x="703" y="238" type="curve" smooth="yes"/>
      <point x="680" y="261"/>
      <point x="641" y="261"/>
      <point x="618" y="239" type="curve" smooth="yes"/>
      <point x="462" y="84" type="line"/>
      <point x="215" y="338" type="line"/>
      <point x="684" y="547" type="line" smooth="yes"/>
      <point x="713" y="560"/>
      <point x="727" y="597"/>
      <point x="714" y="627" type="curve" smooth="yes"/>
      <point x="701" y="656"/>
      <point x="664" y="670"/>
      <point x="634" y="657" type="curve" smooth="yes"/>
      <point x="88" y="412" type="line" smooth="yes"/>
      <point x="47" y="394"/>
      <point x="38" y="347"/>
      <point x="69" y="315" type="curve" smooth="yes"/>
      <point x="417" y="-42" type="line" smooth="yes"/>
      <point x="429" y="-54"/>
      <point x="444" y="-60"/>
      <point x="460" y="-60" type="curve"/>
      <point x="476" y="-60"/>
      <point x="492" y="-54"/>
    </contour>
  </outline>
</glyph>
<glyph name="F" format="1">
  <advance width="819"/>
  <unicode hex="0046"/>
  <outline>
    <contour>
      <point x="169" y="-9" type="curve" smooth="yes"/>
      <point x="222" y="321" type="line"/>
      <point x="733" y="547" type="line" smooth="yes"/>
      <point x="763" y="560"/>
      <point x="777" y="597"/>
      <point x="764" y="626" type="curve" smooth="yes"/>
      <point x="751" y="656"/>
      <point x="714" y="670"/>
      <point x="685" y="657" type="curve" smooth="yes"/>
      <point x="143" y="417" type="line" smooth="yes"/>
      <point x="127" y="410"/>
      <point x="111" y="389"/>
      <point x="108" y="372" type="curve" smooth="yes"/>
      <point x="51" y="9" type="line" smooth="yes"/>
      <point x="46" y="-23"/>
      <point x="69" y="-54"/>
      <point x="101" y="-59" type="curve" smooth="yes"/>
      <point x="133" y="-64"/>
      <point x="164" y="-41"/>
    </contour>
  </outline>
</glyph>
<glyph name="G" format="1">
  <advance width="817"/>
  <unicode hex="0047"/>
  <outline>
    <contour>
      <point x="263" y="560" type="curve" smooth="yes"/>
      <point x="582" y="265" type="line"/>
      <point x="181" y="165" type="line"/>
      <point x="172" y="618" type="line"/>
      <point x="244" y="608" type="line"/>
      <point x="243" y="590"/>
      <point x="250" y="572"/>
    </contour>
    <contour>
      <point x="138" y="31" type="curve" smooth="yes"/>
      <point x="719" y="176" type="line" smooth="yes"/>
      <point x="769" y="188"/>
      <point x="783" y="243"/>
      <point x="745" y="278" type="curve" smooth="yes"/>
      <point x="414" y="584" type="line"/>
      <point x="696" y="545" type="line" smooth="yes"/>
      <point x="728" y="540"/>
      <point x="759" y="564"/>
      <point x="763" y="596" type="curve" smooth="yes"/>
      <point x="768" y="628"/>
      <point x="744" y="659"/>
      <point x="712" y="663" type="curve" smooth="yes"/>
      <point x="119" y="746" type="line" smooth="yes"/>
      <point x="81" y="752"/>
      <point x="49" y="724"/>
      <point x="50" y="686" type="curve" smooth="yes"/>
      <point x="63" y="88" type="line" smooth="yes"/>
      <point x="64" y="47"/>
      <point x="98" y="21"/>
    </contour>
  </outline>
</glyph>
<glyph name="H" format="1">
  <advance width="820"/>
  <unicode hex="0048"/>
  <outline>
    <contour>
      <point x="710" y="-64" type="curve" smooth="yes"/>
      <point x="742" y="-64"/>
      <point x="770" y="-36"/>
      <point x="770" y="-4" type="curve" smooth="yes"/>
      <point x="770" y="596" type="line" smooth="yes"/>
      <point x="770" y="643"/>
      <point x="728" y="670"/>
      <point x="686" y="651" type="curve" smooth="yes"/>
      <point x="213" y="441" type="line"/>
      <point x="170" y="803" type="line" smooth="yes"/>
      <point x="166" y="835"/>
      <point x="135" y="859"/>
      <point x="103" y="856" type="curve" smooth="yes"/>
      <point x="71" y="852"/>
      <point x="47" y="821"/>
      <point x="50" y="789" type="curve" smooth="yes"/>
      <point x="104" y="346" type="line" smooth="yes"/>
      <point x="109" y="304"/>
      <point x="148" y="281"/>
      <point x="188" y="299" type="curve" smooth="yes"/>
      <point x="650" y="504" type="line"/>
      <point x="650" y="-4" type="line" smooth="yes"/>
      <point x="650" y="-36"/>
      <point x="678" y="-64"/>
    </contour>
  </outline>
</glyph>
<glyph name="I" format="1">
  <advance width="819"/>
  <unicode hex="0049"/>
  <outline>
    <contour>
      <point x="162" y="-31" type="curve" smooth="yes"/>
      <point x="458" y="472" type="line"/>
      <point x="752" y="756" type="line" smooth="yes"/>
      <point x="775" y="778"/>
      <point x="776" y="817"/>
      <point x="753" y="841" type="curve" smooth="yes"/>
      <point x="731" y="864"/>
      <point x="692" y="865"/>
      <point x="668" y="842" type="curve" smooth="yes"/>
      <point x="368" y="553" type="line" smooth="yes"/>
      <point x="365" y="550"/>
      <point x="361" y="544"/>
      <point x="358" y="540" type="curve" smooth="yes"/>
      <point x="58" y="29" type="line" smooth="yes"/>
      <point x="42" y="1"/>
      <point x="52" y="-36"/>
      <point x="80" y="-53" type="curve" smooth="yes"/>
      <point x="108" y="-69"/>
      <point x="145" y="-59"/>
    </contour>
  </outline>
</glyph>
<glyph name="J" format="1">
  <advance width="819"/>
  <unicode hex="004A"/>
  <outline>
    <contour>
      <point x="152" y="-44" type="curve" smooth="yes"/>
      <point x="452" y="245" type="line" smooth="yes"/>
      <point x="455" y="248"/>
      <point x="459" y="254"/>
      <point x="462" y="258" type="curve" smooth="yes"/>
      <point x="762" y="769" type="line" smooth="yes"/>
      <point x="778" y="797"/>
      <point x="768" y="834"/>
      <point x="740" y="851" type="curve" smooth="yes"/>
      <point x="712" y="867"/>
      <point x="675" y="857"/>
      <point x="658" y="829" type="curve" smooth="yes"/>
      <point x="362" y="326" type="line"/>
      <point x="68" y="42" type="line" smooth="yes"/>
      <point x="45" y="20"/>
      <point x="44" y="-19"/>
      <point x="67" y="-43" type="curve" smooth="yes"/>
      <point x="89" y="-66"/>
      <point x="128" y="-67"/>
    </contour>
  </outline>
</glyph>
<glyph name="L" format="1">
  <advance width="820"/>
  <unicode hex="004C"/>
  <outline>
    <contour>
      <point x="670" y="-60" type="curve" smooth="yes"/>
      <point x="710" y="-60" type="line" smooth="yes"/>
      <point x="742" y="-60"/>
      <point x="770" y="-32"/>
      <point x="770" y="0" type="curve" smooth="yes"/>
      <point x="770" y="32"/>
      <point x="742" y="60"/>
      <point x="710" y="60" type="curve" smooth="yes"/>
      <point x="680" y="60" type="line"/>
      <point x="170" y="242" type="line"/>
      <point x="170" y="800" type="line" smooth="yes"/>
      <point x="170" y="832"/>
      <point x="142" y="860"/>
      <point x="110" y="860" type="curve" smooth="yes"/>
      <point x="78" y="860"/>
      <point x="50" y="832"/>
      <point x="50" y="800" type="curve" smooth="yes"/>
      <point x="50" y="200" type="line"/>
      <point x="50" y="177"/>
      <point x="68" y="151"/>
      <point x="90" y="143" type="curve" smooth="yes"/>
      <point x="650" y="-57" type="line" smooth="yes"/>
      <point x="655" y="-58"/>
      <point x="664" y="-60"/>
    </contour>
  </outline>
</glyph>
<glyph name="M" format="1">
  <advance width="820"/>
  <unicode hex="004D"/>
  <outline>
    <contour>
      <point x="710" y="-61" type="curve" smooth="yes"/>
      <point x="742" y="-61"/>
      <point x="770" y="-33"/>
      <point x="770" y="-1" type="curve" smooth="yes"/>
      <point x="770" y="599" type="line" smooth="yes"/>
      <point x="770" y="622"/>
      <point x="752" y="648"/>
      <point x="730" y="656" type="curve" smooth="yes"/>
      <point x="170" y="856" type="line" smooth="yes"/>
      <point x="130" y="870"/>
      <point x="93" y="845"/>
      <point x="90" y="803" type="curve" smooth="yes"/>
      <point x="50" y="213" type="line"/>
      <point x="50" y="-1" type="line" smooth="yes"/>
      <point x="50" y="-33"/>
      <point x="78" y="-61"/>
      <point x="110" y="-61" type="curve" smooth="yes"/>
      <point x="142" y="-61"/>
      <point x="170" y="-33"/>
      <point x="170" y="-1" type="curve" smooth="yes"/>
      <point x="170" y="205" type="line"/>
      <point x="204" y="716" type="line"/>
      <point x="650" y="557" type="line"/>
      <point x="650" y="-1" type="line" smooth="yes"/>
      <point x="650" y="-33"/>
      <point x="678" y="-61"/>
    </contour>
  </outline>
</glyph>
<glyph name="N" format="1">
  <advance width="820"/>
  <unicode hex="004E"/>
  <outline>
    <contour>
      <point x="170" y="-1" type="curve" smooth="yes"/>
      <point x="170" y="164" type="line"/>
      <point x="398" y="583" type="line"/>
      <point x="659" y="167" type="line" smooth="yes"/>
      <point x="694" y="112"/>
      <point x="770" y="134"/>
      <point x="770" y="199" type="curve" smooth="yes"/>
      <point x="770" y="799" type="line" smooth="yes"/>
      <point x="770" y="831"/>
      <point x="742" y="859"/>
      <point x="710" y="859" type="curve" smooth="yes"/>
      <point x="678" y="859"/>
      <point x="650" y="831"/>
      <point x="650" y="799" type="curve" smooth="yes"/>
      <point x="650" y="407" type="line"/>
      <point x="445" y="734" type="line" smooth="yes"/>
      <point x="419" y="776"/>
      <point x="365" y="774"/>
      <point x="342" y="731" type="curve" smooth="yes"/>
      <point x="57" y="208" type="line" smooth="yes"/>
      <point x="53" y="200"/>
      <point x="50" y="187"/>
      <point x="50" y="179" type="curve" smooth="yes"/>
      <point x="50" y="-1" type="line" smooth="yes"/>
      <point x="50" y="-33"/>
      <point x="78" y="-61"/>
      <point x="110" y="-61" type="curve" smooth="yes"/>
      <point x="142" y="-61"/>
      <point x="170" y="-33"/>
    </contour>
  </outline>
</glyph>
<glyph name="O" format="1">
  <advance width="818"/>
  <unicode hex="004F"/>
  <outline>
    <contour>
      <point x="568" y="-21" type="curve" smooth="yes"/>
      <point x="765" y="539" type="line" smooth="yes"/>
      <point x="776" y="571"/>
      <point x="759" y="606"/>
      <point x="726" y="616" type="curve" smooth="yes"/>
      <point x="155" y="794" type="line" smooth="yes"/>
      <point x="115" y="806"/>
      <point x="79" y="780"/>
      <point x="77" y="739" type="curve" smooth="yes"/>
      <point x="50" y="143" type="line" smooth="yes"/>
      <point x="49" y="118"/>
      <point x="67" y="92"/>
      <point x="90" y="83" type="curve" smooth="yes"/>
      <point x="481" y="-57" type="line" smooth="yes"/>
      <point x="489" y="-60"/>
      <point x="497" y="-61"/>
      <point x="505" y="-61" type="curve"/>
      <point x="532" y="-63"/>
      <point x="558" y="-47"/>
    </contour>
    <contour>
      <point x="473" y="73" type="line"/>
      <point x="172" y="181" type="line"/>
      <point x="193" y="656" type="line"/>
      <point x="631" y="520" type="line"/>
    </contour>
  </outline>
</glyph>
<glyph name="Q" format="1">
  <advance width="818"/>
  <unicode hex="0051"/>
  <outline>
    <contour>
      <point x="565" y="-21" type="curve" smooth="yes"/>
      <point x="765" y="539" type="line" smooth="yes"/>
      <point x="776" y="571"/>
      <point x="759" y="606"/>
      <point x="726" y="616" type="curve" smooth="yes"/>
      <point x="155" y="794" type="line" smooth="yes"/>
      <point x="115" y="806"/>
      <point x="79" y="780"/>
      <point x="77" y="739" type="curve" smooth="yes"/>
      <point x="50" y="152" type="line" smooth="yes"/>
      <point x="49" y="128"/>
      <point x="66" y="101"/>
      <point x="88" y="93" type="curve" smooth="yes"/>
      <point x="476" y="-57" type="line" smooth="yes"/>
      <point x="485" y="-60"/>
      <point x="493" y="-61"/>
      <point x="502" y="-61" type="curve"/>
      <point x="528" y="-63"/>
      <point x="555" y="-47"/>
    </contour>
    <contour>
      <point x="471" y="74" type="line"/>
      <point x="172" y="189" type="line"/>
      <point x="193" y="656" type="line"/>
      <point x="630" y="520" type="line"/>
    </contour>
  </outline>
</glyph>
<glyph name="S" format="1">
  <advance width="821"/>
  <unicode hex="0053"/>
  <outline>
    <contour>
      <point x="130" y="147" type="curve" smooth="yes"/>
      <point x="646" y="331" type="line" smooth="yes"/>
      <point x="698" y="349"/>
      <point x="704" y="410"/>
      <point x="657" y="438" type="curve" smooth="yes"/>
      <point x="407" y="590" type="line"/>
      <point x="702" y="545" type="line" smooth="yes"/>
      <point x="734" y="540"/>
      <point x="765" y="563"/>
      <point x="770" y="595" type="curve" smooth="yes"/>
      <point x="775" y="627"/>
      <point x="752" y="658"/>
      <point x="720" y="663" type="curve" smooth="yes"/>
      <point x="127" y="754" type="line" smooth="yes"/>
      <point x="59" y="765"/>
      <point x="28" y="680"/>
      <point x="87" y="644" type="curve" smooth="yes"/>
      <point x="487" y="401" type="line"/>
      <point x="90" y="261" type="line" smooth="yes"/>
      <point x="59" y="250"/>
      <point x="43" y="214"/>
      <point x="53" y="184" type="curve" smooth="yes"/>
      <point x="64" y="153"/>
      <point x="100" y="137"/>
    </contour>
  </outline>
</glyph>
<glyph name="T" format="1">
  <advance width="520"/>
  <unicode hex="0054"/>
  <outline>
    <contour>
      <point x="410" y="-60" type="curve" smooth="yes"/>
      <point x="442" y="-60"/>
      <point x="470" y="-32"/>
      <point x="470" y="0" type="curve" smooth="yes"/>
      <point x="470" y="600" type="line" smooth="yes"/>
      <point x="470" y="618"/>
      <point x="458" y="640"/>
      <point x="443" y="650" type="curve" smooth="yes"/>
      <point x="143" y="850" type="line" smooth="yes"/>
      <point x="116" y="868"/>
      <point x="78" y="860"/>
      <point x="60" y="833" type="curve" smooth="yes"/>
      <point x="42" y="806"/>
      <point x="50" y="768"/>
      <point x="77" y="750" type="curve" smooth="yes"/>
      <point x="350" y="568" type="line"/>
      <point x="350" y="0" type="line" smooth="yes"/>
      <point x="350" y="-32"/>
      <point x="378" y="-60"/>
    </contour>
  </outline>
</glyph>
<glyph name="U" format="1">
  <advance width="819"/>
  <unicode hex="0055"/>
  <outline>
    <contour>
      <point x="769" y="199" type="curve" smooth="yes"/>
      <point x="769" y="799" type="line" smooth="yes"/>
      <point x="769" y="831"/>
      <point x="741" y="859"/>
      <point x="709" y="859" type="curve" smooth="yes"/>
      <point x="677" y="859"/>
      <point x="649" y="831"/>
      <point x="649" y="799" type="curve" smooth="yes"/>
      <point x="649" y="262" type="line"/>
      <point x="170" y="286" type="line"/>
      <point x="170" y="799" type="line" smooth="yes"/>
      <point x="170" y="831"/>
      <point x="142" y="859"/>
      <point x="110" y="859" type="curve" smooth="yes"/>
      <point x="78" y="859"/>
      <point x="50" y="831"/>
      <point x="50" y="799" type="curve" smooth="yes"/>
      <point x="50" y="229" type="line" smooth="yes"/>
      <point x="50" y="197"/>
      <point x="76" y="171"/>
      <point x="107" y="169" type="curve" smooth="yes"/>
      <point x="706" y="139" type="line" smooth="yes"/>
      <point x="741" y="137"/>
      <point x="769" y="164"/>
    </contour>
  </outline>
</glyph>
<glyph name="V" format="1">
  <advance width="820"/>
  <unicode hex="0056"/>
  <outline>
    <contour>
      <point x="765" y="124" type="curve" smooth="yes"/>
      <point x="770" y="719" type="line"/>
      <point x="770" y="800" type="line" smooth="yes"/>
      <point x="770" y="832"/>
      <point x="742" y="860"/>
      <point x="710" y="860" type="curve" smooth="yes"/>
      <point x="678" y="860"/>
      <point x="650" y="832"/>
      <point x="650" y="800" type="curve" smooth="yes"/>
      <point x="650" y="721" type="line"/>
      <point x="645" y="193" type="line"/>
      <point x="170" y="253" type="line"/>
      <point x="170" y="800" type="line" smooth="yes"/>
      <point x="170" y="832"/>
      <point x="142" y="860"/>
      <point x="110" y="860" type="curve" smooth="yes"/>
      <point x="78" y="860"/>
      <point x="50" y="832"/>
      <point x="50" y="800" type="curve" smooth="yes"/>
      <point x="50" y="200" type="line"/>
      <point x="50" y="171"/>
      <point x="73" y="144"/>
      <point x="102" y="140" type="curve" smooth="yes"/>
      <point x="697" y="65" type="line" smooth="yes"/>
      <point x="734" y="61"/>
      <point x="765" y="87"/>
    </contour>
  </outline>
</glyph>
<glyph name="W" format="1">
  <advance width="820"/>
  <unicode hex="0057"/>
  <outline>
    <contour>
      <point x="730" y="-4" type="curve" smooth="yes"/>
      <point x="770" y="586" type="line"/>
      <point x="770" y="800" type="line" smooth="yes"/>
      <point x="770" y="832"/>
      <point x="742" y="860"/>
      <point x="710" y="860" type="curve" smooth="yes"/>
      <point x="678" y="860"/>
      <point x="650" y="832"/>
      <point x="650" y="800" type="curve" smooth="yes"/>
      <point x="650" y="594" type="line"/>
      <point x="616" y="83" type="line"/>
      <point x="170" y="242" type="line"/>
      <point x="170" y="800" type="line" smooth="yes"/>
      <point x="170" y="832"/>
      <point x="142" y="860"/>
      <point x="110" y="860" type="curve" smooth="yes"/>
      <point x="78" y="860"/>
      <point x="50" y="832"/>
      <point x="50" y="800" type="curve" smooth="yes"/>
      <point x="50" y="200" type="line"/>
      <point x="50" y="177"/>
      <point x="68" y="151"/>
      <point x="90" y="143" type="curve" smooth="yes"/>
      <point x="650" y="-57" type="line" smooth="yes"/>
      <point x="690" y="-71"/>
      <point x="727" y="-46"/>
    </contour>
  </outline>
</glyph>
<glyph name="X" format="1">
  <advance width="820"/>
  <unicode hex="0058"/>
  <outline>
    <contour>
      <point x="166" y="-23" type="curve" smooth="yes"/>
      <point x="298" y="300" type="line"/>
      <point x="669" y="-44" type="line" smooth="yes"/>
      <point x="693" y="-66"/>
      <point x="732" y="-65"/>
      <point x="754" y="-41" type="curve" smooth="yes"/>
      <point x="776" y="-17"/>
      <point x="775" y="22"/>
      <point x="751" y="44" type="curve" smooth="yes"/>
      <point x="365" y="402" type="line"/>
      <point x="751" y="756" type="line" smooth="yes"/>
      <point x="774" y="778"/>
      <point x="776" y="817"/>
      <point x="754" y="841" type="curve" smooth="yes"/>
      <point x="732" y="864"/>
      <point x="693" y="866"/>
      <point x="669" y="844" type="curve" smooth="yes"/>
      <point x="299" y="504" type="line"/>
      <point x="165" y="823" type="line" smooth="yes"/>
      <point x="153" y="853"/>
      <point x="117" y="868"/>
      <point x="87" y="855" type="curve" smooth="yes"/>
      <point x="57" y="843"/>
      <point x="42" y="807"/>
      <point x="55" y="777" type="curve" smooth="yes"/>
      <point x="211" y="405" type="line"/>
      <point x="54" y="23" type="line" smooth="yes"/>
      <point x="42" y="-7"/>
      <point x="57" y="-43"/>
      <point x="87" y="-56" type="curve" smooth="yes"/>
      <point x="117" y="-68"/>
      <point x="153" y="-53"/>
    </contour>
  </outline>
</glyph>
<glyph name="Z" format="1">
  <advance width="820"/>
  <unicode hex="005A"/>
  <outline>
    <contour>
      <point x="760" y="-33" type="curve" smooth="yes"/>
      <point x="778" y="-6"/>
      <point x="770" y="32"/>
      <point x="743" y="50" type="curve" smooth="yes"/>
      <point x="357" y="307" type="line"/>
      <point x="739" y="655" type="line" smooth="yes"/>
      <point x="779" y="692"/>
      <point x="762" y="749"/>
      <point x="708" y="759" type="curve" smooth="yes"/>
      <point x="120" y="859" type="line" smooth="yes"/>
      <point x="88" y="865"/>
      <point x="56" y="842"/>
      <point x="51" y="810" type="curve" smooth="yes"/>
      <point x="45" y="778"/>
      <point x="68" y="746"/>
      <point x="100" y="741" type="curve" smooth="yes"/>
      <point x="567" y="661" type="line"/>
      <point x="220" y="344" type="line" smooth="yes"/>
      <point x="189" y="317"/>
      <point x="193" y="273"/>
      <point x="227" y="250" type="curve" smooth="yes"/>
      <point x="677" y="-50" type="line" smooth="yes"/>
      <point x="704" y="-68"/>
      <point x="742" y="-60"/>
    </contour>
  </outline>
</glyph>
<glyph name="bracketleft" format="1">
  <advance width="519"/>
  <unicode hex="005B"/>
  <outline>
    <contour>
      <point x="452" y="-42" type="curve" smooth="yes"/>
      <point x="475" y="-18"/>
      <point x="474" y="21"/>
      <point x="451" y="43" type="curve" smooth="yes"/>
      <point x="185" y="300" type="line"/>
      <point x="461" y="770" type="line" smooth="yes"/>
      <point x="477" y="798"/>
      <point x="467" y="835"/>
      <point x="439" y="852" type="curve" smooth="yes"/>
      <point x="411" y="868"/>
      <point x="374" y="858"/>
      <point x="357" y="830" type="curve" smooth="yes"/>
      <point x="57" y="320" type="line" smooth="yes"/>
      <point x="44" y="298"/>
      <point x="49" y="265"/>
      <point x="67" y="247" type="curve" smooth="yes"/>
      <point x="367" y="-43" type="line" smooth="yes"/>
      <point x="391" y="-66"/>
      <point x="430" y="-65"/>
    </contour>
  </outline>
</glyph>
<glyph name="backslash" format="1">
  <advance width="819"/>
  <unicode hex="005C"/>
  <outline>
    <contour>
      <point x="745" y="-49" type="curve" smooth="yes"/>
      <point x="771" y="-30"/>
      <point x="776" y="9"/>
      <point x="757" y="35" type="curve" smooth="yes"/>
      <point x="157" y="835" type="line" smooth="yes"/>
      <point x="138" y="861"/>
      <point x="99" y="866"/>
      <point x="73" y="847" type="curve" smooth="yes"/>
      <point x="47" y="828"/>
      <point x="42" y="789"/>
      <point x="61" y="763" type="curve" smooth="yes"/>
      <point x="661" y="-37" type="line" smooth="yes"/>
      <point x="680" y="-63"/>
      <point x="719" y="-68"/>
    </contour>
  </outline>
</glyph>
<glyph name="bracketright" format="1">
  <advance width="519"/>
  <unicode hex="005D"/>
  <outline>
    <contour>
      <point x="152" y="-44" type="curve" smooth="yes"/>
      <point x="452" y="246" type="line" smooth="yes"/>
      <point x="470" y="264"/>
      <point x="475" y="297"/>
      <point x="462" y="319" type="curve" smooth="yes"/>
      <point x="162" y="829" type="line" smooth="yes"/>
      <point x="145" y="857"/>
      <point x="108" y="867"/>
      <point x="80" y="851" type="curve" smooth="yes"/>
      <point x="52" y="834"/>
      <point x="42" y="797"/>
      <point x="58" y="769" type="curve" smooth="yes"/>
      <point x="334" y="299" type="line"/>
      <point x="68" y="42" type="line" smooth="yes"/>
      <point x="45" y="20"/>
      <point x="44" y="-19"/>
      <point x="67" y="-43" type="curve" smooth="yes"/>
      <point x="89" y="-66"/>
      <point x="128" y="-67"/>
    </contour>
  </outline>
</glyph>
<glyph name="b" format="1">
  <advance width="620"/>
  <unicode hex="0062"/>
  <outline>
    <contour>
      <point x="570" y="404" type="curve" smooth="yes"/>
      <point x="570" y="436"/>
      <point x="542" y="464"/>
      <point x="510" y="464" type="curve" smooth="yes"/>
      <point x="110" y="464" type="line" smooth="yes"/>
      <point x="78" y="464"/>
      <point x="50" y="436"/>
      <point x="50" y="404" type="curve" smooth="yes"/>
      <point x="50" y="372"/>
      <point x="78" y="344"/>
      <point x="110" y="344" type="curve" smooth="yes"/>
      <point x="510" y="344" type="line" smooth="yes"/>
      <point x="542" y="344"/>
      <point x="570" y="372"/>
    </contour>
  </outline>
</glyph>
<glyph name="c" format="1">
  <advance width="814"/>
  <unicode hex="0063"/>
  <outline>
    <contour>
      <point x="130" y="34" type="curve" smooth="yes"/>
      <point x="715" y="139" type="line" smooth="yes"/>
      <point x="747" y="145"/>
      <point x="769" y="177"/>
      <point x="763" y="209" type="curve" smooth="yes"/>
      <point x="757" y="241"/>
      <point x="725" y="263"/>
      <point x="693" y="257" type="curve" smooth="yes"/>
      <point x="179" y="164" type="line"/>
      <point x="171" y="614" type="line"/>
      <point x="695" y="539" type="line" smooth="yes"/>
      <point x="727" y="534"/>
      <point x="759" y="557"/>
      <point x="763" y="589" type="curve" smooth="yes"/>
      <point x="768" y="621"/>
      <point x="745" y="653"/>
      <point x="713" y="657" type="curve" smooth="yes"/>
      <point x="119" y="743" type="line" smooth="yes"/>
      <point x="81" y="749"/>
      <point x="50" y="721"/>
      <point x="50" y="683" type="curve" smooth="yes"/>
      <point x="60" y="92" type="line" smooth="yes"/>
      <point x="60" y="53"/>
      <point x="93" y="27"/>
    </contour>
  </outline>
</glyph>
<glyph name="d" format="1">
  <advance width="820"/>
  <unicode hex="0064"/>
  <outline>
    <contour>
      <point x="767" y="148" type="curve" smooth="yes"/>
      <point x="770" y="589" type="line" smooth="yes"/>
      <point x="770" y="591"/>
      <point x="770" y="593"/>
      <point x="770" y="594" type="curve"/>
      <point x="772" y="620"/>
      <point x="756" y="646"/>
      <point x="730" y="656" type="curve" smooth="yes"/>
      <point x="165" y="856" type="line" smooth="yes"/>
      <point x="125" y="870"/>
      <point x="88" y="845"/>
      <point x="85" y="803" type="curve" smooth="yes"/>
      <point x="50" y="213" type="line" smooth="yes"/>
      <point x="48" y="181"/>
      <point x="72" y="152"/>
      <point x="104" y="149" type="curve" smooth="yes"/>
      <point x="701" y="89" type="line" smooth="yes"/>
      <point x="737" y="85"/>
      <point x="767" y="112"/>
    </contour>
    <contour>
      <point x="647" y="215" type="line"/>
      <point x="173" y="263" type="line"/>
      <point x="200" y="716" type="line"/>
      <point x="650" y="557" type="line"/>
    </contour>
  </outline>
</glyph>
<glyph name="f" format="1">
  <advance width="819"/>
  <unicode hex="0066"/>
  <outline>
    <contour>
      <point x="169" y="-5" type="curve" smooth="yes"/>
      <point x="220" y="324" type="line"/>
      <point x="282" y="351" type="line"/>
      <point x="290" y="347"/>
      <point x="300" y="344"/>
      <point x="310" y="344" type="curve" smooth="yes"/>
      <point x="510" y="344" type="line" smooth="yes"/>
      <point x="542" y="344"/>
      <point x="570" y="372"/>
      <point x="570" y="404" type="curve" smooth="yes"/>
      <point x="570" y="430"/>
      <point x="553" y="453"/>
      <point x="529" y="461" type="curve"/>
      <point x="733" y="551" type="line" smooth="yes"/>
      <point x="763" y="564"/>
      <point x="777" y="601"/>
      <point x="764" y="630" type="curve" smooth="yes"/>
      <point x="751" y="660"/>
      <point x="714" y="674"/>
      <point x="685" y="661" type="curve" smooth="yes"/>
      <point x="142" y="420" type="line" smooth="yes"/>
      <point x="125" y="413"/>
      <point x="109" y="393"/>
      <point x="107" y="375" type="curve" smooth="yes"/>
      <point x="51" y="13" type="line" smooth="yes"/>
      <point x="46" y="-19"/>
      <point x="69" y="-50"/>
      <point x="101" y="-55" type="curve" smooth="yes"/>
      <point x="133" y="-60"/>
      <point x="164" y="-37"/>
    </contour>
  </outline>
</glyph>
<glyph name="k" format="1">
  <advance width="820"/>
  <unicode hex="006B"/>
  <outline>
    <contour>
      <point x="754" y="-37" type="curve" smooth="yes"/>
      <point x="776" y="-13"/>
      <point x="774" y="26"/>
      <point x="751" y="48" type="curve" smooth="yes"/>
      <point x="325" y="438" type="line"/>
      <point x="166" y="827" type="line" smooth="yes"/>
      <point x="153" y="857"/>
      <point x="117" y="872"/>
      <point x="87" y="860" type="curve" smooth="yes"/>
      <point x="57" y="847"/>
      <point x="42" y="811"/>
      <point x="54" y="781" type="curve" smooth="yes"/>
      <point x="219" y="380" type="line" smooth="yes"/>
      <point x="222" y="373"/>
      <point x="229" y="363"/>
      <point x="234" y="358" type="curve" smooth="yes"/>
      <point x="669" y="-40" type="line" smooth="yes"/>
      <point x="693" y="-62"/>
      <point x="732" y="-60"/>
    </contour>
    <contour>
      <point x="483" y="350" type="curve" smooth="yes"/>
      <point x="512" y="336"/>
      <point x="549" y="348"/>
      <point x="564" y="377" type="curve" smooth="yes"/>
      <point x="764" y="777" type="line" smooth="yes"/>
      <point x="778" y="806"/>
      <point x="766" y="843"/>
      <point x="737" y="858" type="curve" smooth="yes"/>
      <point x="708" y="872"/>
      <point x="671" y="860"/>
      <point x="656" y="831" type="curve" smooth="yes"/>
      <point x="456" y="431" type="line" smooth="yes"/>
      <point x="442" y="402"/>
      <point x="454" y="365"/>
    </contour>
  </outline>
</glyph>
<glyph name="p" format="1">
  <advance width="764"/>
  <unicode hex="0070"/>
  <outline>
    <contour>
      <point x="110" y="-57" type="curve" smooth="yes"/>
      <point x="142" y="-57"/>
      <point x="170" y="-29"/>
      <point x="170" y="3" type="curve" smooth="yes"/>
      <point x="170" y="60" type="line"/>
      <point x="678" y="288" type="line" smooth="yes"/>
      <point x="716" y="306"/>
      <point x="726" y="349"/>
      <point x="699" y="381" type="curve" smooth="yes"/>
      <point x="320" y="840" type="line" smooth="yes"/>
      <point x="286" y="880"/>
      <point x="230" y="869"/>
      <point x="216" y="818" type="curve" smooth="yes"/>
      <point x="52" y="250" type="line" smooth="yes"/>
      <point x="51" y="245"/>
      <point x="50" y="238"/>
      <point x="50" y="233" type="curve" smooth="yes"/>
      <point x="50" y="3" type="line" smooth="yes"/>
      <point x="50" y="-29"/>
      <point x="78" y="-57"/>
    </contour>
    <contour>
      <point x="170" y="192" type="line"/>
      <point x="170" y="225" type="line"/>
      <point x="300" y="676" type="line"/>
      <point x="557" y="365" type="line"/>
    </contour>
  </outline>
</glyph>
<glyph name="r" format="1">
  <advance width="820"/>
  <unicode hex="0072"/>
  <outline>
    <contour>
      <point x="762" y="-34" type="curve" smooth="yes"/>
      <point x="778" y="-6"/>
      <point x="768" y="31"/>
      <point x="740" y="48" type="curve" smooth="yes"/>
      <point x="481" y="200" type="line"/>
      <point x="546" y="248" type="line" smooth="yes"/>
      <point x="572" y="267"/>
      <point x="577" y="306"/>
      <point x="558" y="332" type="curve" smooth="yes"/>
      <point x="539" y="358"/>
      <point x="500" y="363"/>
      <point x="474" y="344" type="curve" smooth="yes"/>
      <point x="369" y="266" type="line"/>
      <point x="363" y="270" type="line"/>
      <point x="367" y="278"/>
      <point x="369" y="287"/>
      <point x="369" y="296" type="curve" smooth="yes"/>
      <point x="369" y="328"/>
      <point x="341" y="356"/>
      <point x="309" y="356" type="curve" smooth="yes"/>
      <point x="199" y="356" type="line" smooth="yes"/>
      <point x="133" y="356"/>
      <point x="112" y="278"/>
      <point x="169" y="244" type="curve" smooth="yes"/>
      <point x="265" y="188" type="line"/>
      <point x="73" y="44" type="line" smooth="yes"/>
      <point x="47" y="25"/>
      <point x="42" y="-14"/>
      <point x="61" y="-40" type="curve" smooth="yes"/>
      <point x="80" y="-66"/>
      <point x="119" y="-71"/>
      <point x="145" y="-52" type="curve" smooth="yes"/>
      <point x="377" y="122" type="line"/>
      <point x="680" y="-56" type="line" smooth="yes"/>
      <point x="708" y="-72"/>
      <point x="745" y="-62"/>
    </contour>
  </outline>
</glyph>
<glyph name="y" format="1">
  <advance width="542"/>
  <unicode hex="0079"/>
  <outline>
    <contour>
      <point x="151" y="-43" type="curve" smooth="yes"/>
      <point x="473" y="254" type="line" smooth="yes"/>
      <point x="494" y="273"/>
      <point x="498" y="307"/>
      <point x="483" y="331" type="curve" smooth="yes"/>
      <point x="160" y="831" type="line" smooth="yes"/>
      <point x="143" y="858"/>
      <point x="105" y="866"/>
      <point x="77" y="848" type="curve" smooth="yes"/>
      <point x="50" y="831"/>
      <point x="42" y="793"/>
      <point x="60" y="765" type="curve" smooth="yes"/>
      <point x="355" y="308" type="line"/>
      <point x="69" y="45" type="line" smooth="yes"/>
      <point x="46" y="23"/>
      <point x="44" y="-16"/>
      <point x="66" y="-40" type="curve" smooth="yes"/>
      <point x="88" y="-63"/>
      <point x="127" y="-65"/>
    </contour>
  </outline>
</glyph>
<glyph name="braceleft" format="1">
  <advance width="670"/>
  <unicode hex="007B"/>
  <outline>
    <contour>
      <point x="550" y="-62" type="curve" smooth="yes"/>
      <point x="560" y="-62" type="line" smooth="yes"/>
      <point x="592" y="-62"/>
      <point x="620" y="-34"/>
      <point x="620" y="-2" type="curve" smooth="yes"/>
      <point x="620" y="25"/>
      <point x="601" y="49"/>
      <point x="576" y="56" type="curve"/>
      <point x="200" y="400" type="line"/>
      <point x="600" y="753" type="line" smooth="yes"/>
      <point x="624" y="774"/>
      <point x="626" y="813"/>
      <point x="605" y="838" type="curve" smooth="yes"/>
      <point x="584" y="862"/>
      <point x="545" y="864"/>
      <point x="520" y="843" type="curve" smooth="yes"/>
      <point x="70" y="446" type="line" smooth="yes"/>
      <point x="43" y="422"/>
      <point x="43" y="382"/>
      <point x="70" y="357" type="curve" smooth="yes"/>
      <point x="509" y="-46" type="line" smooth="yes"/>
      <point x="519" y="-55"/>
      <point x="537" y="-62"/>
    </contour>
  </outline>
</glyph>
<glyph name="bar" format="1">
  <advance width="220"/>
  <unicode hex="007C"/>
  <outline>
    <contour>
      <point x="110" y="-59" type="curve" smooth="yes"/>
      <point x="142" y="-59"/>
      <point x="170" y="-31"/>
      <point x="170" y="1" type="curve" smooth="yes"/>
      <point x="170" y="801" type="line" smooth="yes"/>
      <point x="170" y="833"/>
      <point x="142" y="861"/>
      <point x="110" y="861" type="curve" smooth="yes"/>
      <point x="78" y="861"/>
      <point x="50" y="833"/>
      <point x="50" y="801" type="curve" smooth="yes"/>
      <point x="50" y="1" type="line" smooth="yes"/>
      <point x="50" y="-31"/>
      <point x="78" y="-59"/>
    </contour>
  </outline>
</glyph>
<glyph name="braceright" format="1">
  <advance width="670"/>
  <unicode hex="007D"/>
  <outline>
    <contour>
      <point x="110" y="-61" type="curve" smooth="yes"/>
      <point x="120" y="-61" type="line" smooth="yes"/>
      <point x="133" y="-61"/>
      <point x="151" y="-54"/>
      <point x="161" y="-45" type="curve" smooth="yes"/>
      <point x="600" y="358" type="line" smooth="yes"/>
      <point x="627" y="383"/>
      <point x="627" y="423"/>
      <point x="600" y="447" type="curve" smooth="yes"/>
      <point x="150" y="844" type="line" smooth="yes"/>
      <point x="125" y="865"/>
      <point x="86" y="863"/>
      <point x="65" y="839" type="curve" smooth="yes"/>
      <point x="44" y="814"/>
      <point x="46" y="775"/>
      <point x="70" y="754" type="curve" smooth="yes"/>
      <point x="470" y="401" type="line"/>
      <point x="94" y="57" type="line"/>
      <point x="69" y="50"/>
      <point x="50" y="26"/>
      <point x="50" y="-1" type="curve" smooth="yes"/>
      <point x="50" y="-33"/>
      <point x="78" y="-61"/>
    </contour>
  </outline>
</glyph>
<glyph name="asciitilde" format="1">
  <advance width="820"/>
  <unicode hex="007E"/>
  <outline>
    <contour>
      <point x="120" y="44" type="curve" smooth="yes"/>
      <point x="708" y="144" type="line" smooth="yes"/>
      <point x="733" y="148"/>
      <point x="755" y="171"/>
      <point x="758" y="196" type="curve" smooth="yes"/>
      <point x="770" y="296" type="line" smooth="yes"/>
      <point x="773" y="328"/>
      <point x="749" y="359"/>
      <point x="717" y="363" type="curve" smooth="yes"/>
      <point x="685" y="366"/>
      <point x="654" y="342"/>
      <point x="650" y="310" type="curve" smooth="yes"/>
      <point x="644" y="255" type="line"/>
      <point x="100" y="162" type="line" smooth="yes"/>
      <point x="68" y="157"/>
      <point x="45" y="125"/>
      <point x="51" y="93" type="curve" smooth="yes"/>
      <point x="56" y="61"/>
      <point x="88" y="38"/>
    </contour>
  </outline>
</glyph>
<glyph name="sterling" format="1">
  <advance width="570"/>
  <unicode hex="00A3"/>
  <outline>
    <contour>
      <point x="480" y="-56" type="curve" smooth="yes"/>
      <point x="511" y="-45"/>
      <point x="527" y="-9"/>
      <point x="517" y="21" type="curve" smooth="yes"/>
      <point x="402" y="341" type="line"/>
      <point x="410" y="341" type="line" smooth="yes"/>
      <point x="442" y="341"/>
      <point x="470" y="369"/>
      <point x="470" y="401" type="curve" smooth="yes"/>
      <point x="470" y="433"/>
      <point x="442" y="461"/>
      <point x="410" y="461" type="curve" smooth="yes"/>
      <point x="360" y="461" type="line"/>
      <point x="328" y="549" type="line"/>
      <point x="506" y="763" type="line" smooth="yes"/>
      <point x="527" y="787"/>
      <point x="523" y="826"/>
      <point x="498" y="847" type="curve" smooth="yes"/>
      <point x="474" y="868"/>
      <point x="435" y="864"/>
      <point x="414" y="839" type="curve" smooth="yes"/>
      <point x="214" y="600" type="line" smooth="yes"/>
      <point x="202" y="585"/>
      <point x="197" y="559"/>
      <point x="203" y="541" type="curve" smooth="yes"/>
      <point x="232" y="461" type="line"/>
      <point x="110" y="461" type="line" smooth="yes"/>
      <point x="78" y="461"/>
      <point x="50" y="433"/>
      <point x="50" y="401" type="curve" smooth="yes"/>
      <point x="50" y="369"/>
      <point x="78" y="341"/>
      <point x="110" y="341" type="curve" smooth="yes"/>
      <point x="275" y="341" type="line"/>
      <point x="403" y="-19" type="line" smooth="yes"/>
      <point x="414" y="-50"/>
      <point x="450" y="-66"/>
    </contour>
  </outline>
</glyph>
<glyph name="section" format="1">
  <advance width="820"/>
  <unicode hex="00A7"/>
  <outline>
    <contour>
      <point x="112" y="143" type="curve" smooth="yes"/>
      <point x="664" y="159" type="line" smooth="yes"/>
      <point x="726" y="161"/>
      <point x="748" y="230"/>
      <point x="698" y="267" type="curve" smooth="yes"/>
      <point x="345" y="532" type="line"/>
      <point x="712" y="543" type="line" smooth="yes"/>
      <point x="744" y="544"/>
      <point x="771" y="572"/>
      <point x="770" y="605" type="curve" smooth="yes"/>
      <point x="769" y="637"/>
      <point x="741" y="664"/>
      <point x="708" y="663" type="curve" smooth="yes"/>
      <point x="156" y="647" type="line" smooth="yes"/>
      <point x="94" y="645"/>
      <point x="72" y="576"/>
      <point x="122" y="539" type="curve" smooth="yes"/>
      <point x="475" y="274" type="line"/>
      <point x="108" y="263" type="line" smooth="yes"/>
      <point x="76" y="262"/>
      <point x="49" y="234"/>
      <point x="50" y="201" type="curve" smooth="yes"/>
      <point x="51" y="169"/>
      <point x="79" y="142"/>
    </contour>
  </outline>
</glyph>
<glyph name="guillemotleft" format="1">
  <advance width="420"/>
  <unicode hex="00AB"/>
  <outline>
    <contour>
      <point x="310" y="457" type="curve" smooth="yes"/>
      <point x="278" y="457"/>
      <point x="250" y="429"/>
      <point x="250" y="397" type="curve" smooth="yes"/>
      <point x="250" y="-3" type="line" smooth="yes"/>
      <point x="250" y="-35"/>
      <point x="278" y="-63"/>
      <point x="310" y="-63" type="curve" smooth="yes"/>
      <point x="342" y="-63"/>
      <point x="370" y="-35"/>
      <point x="370" y="-3" type="curve" smooth="yes"/>
      <point x="370" y="397" type="line" smooth="yes"/>
      <point x="370" y="429"/>
      <point x="342" y="457"/>
    </contour>
    <contour>
      <point x="110" y="457" type="curve" smooth="yes"/>
      <point x="78" y="457"/>
      <point x="50" y="429"/>
      <point x="50" y="397" type="curve" smooth="yes"/>
      <point x="50" y="-3" type="line" smooth="yes"/>
      <point x="50" y="-35"/>
      <point x="78" y="-63"/>
      <point x="110" y="-63" type="curve" smooth="yes"/>
      <point x="142" y="-63"/>
      <point x="170" y="-35"/>
      <point x="170" y="-3" type="curve" smooth="yes"/>
      <point x="170" y="397" type="line" smooth="yes"/>
      <point x="170" y="429"/>
      <point x="142" y="457"/>
    </contour>
  </outline>
</glyph>
<glyph name="plusminus" format="1">
  <advance width="620"/>
  <unicode hex="00B1"/>
  <outline>
    <contour>
      <point x="310" y="137" type="curve" smooth="yes"/>
      <point x="342" y="137"/>
      <point x="370" y="165"/>
      <point x="370" y="197" type="curve" smooth="yes"/>
      <point x="370" y="337" type="line"/>
      <point x="510" y="337" type="line" smooth="yes"/>
      <point x="542" y="337"/>
      <point x="570" y="365"/>
      <point x="570" y="397" type="curve" smooth="yes"/>
      <point x="570" y="429"/>
      <point x="542" y="457"/>
      <point x="510" y="457" type="curve" smooth="yes"/>
      <point x="370" y="457" type="line"/>
      <point x="370" y="597" type="line" smooth="yes"/>
      <point x="370" y="629"/>
      <point x="342" y="657"/>
      <point x="310" y="657" type="curve" smooth="yes"/>
      <point x="278" y="657"/>
      <point x="250" y="629"/>
      <point x="250" y="597" type="curve" smooth="yes"/>
      <point x="250" y="457" type="line"/>
      <point x="110" y="457" type="line" smooth="yes"/>
      <point x="78" y="457"/>
      <point x="50" y="429"/>
      <point x="50" y="397" type="curve" smooth="yes"/>
      <point x="50" y="365"/>
      <point x="78" y="337"/>
      <point x="110" y="337" type="curve" smooth="yes"/>
      <point x="250" y="337" type="line"/>
      <point x="250" y="197" type="line" smooth="yes"/>
      <point x="250" y="165"/>
      <point x="278" y="137"/>
    </contour>
    <contour>
      <point x="50" y="-3" type="curve" smooth="yes"/>
      <point x="50" y="-35"/>
      <point x="78" y="-63"/>
      <point x="110" y="-63" type="curve" smooth="yes"/>
      <point x="510" y="-63" type="line" smooth="yes"/>
      <point x="542" y="-63"/>
      <point x="570" y="-35"/>
      <point x="570" y="-3" type="curve" smooth="yes"/>
      <point x="570" y="29"/>
      <point x="542" y="57"/>
      <point x="510" y="57" type="curve" smooth="yes"/>
      <point x="110" y="57" type="line" smooth="yes"/>
      <point x="78" y="57"/>
      <point x="50" y="29"/>
    </contour>
  </outline>
</glyph>
<glyph name="paragraph" format="1">
  <advance width="420"/>
  <unicode hex="00B6"/>
  <outline>
    <contour>
      <point x="310" y="-60" type="curve" smooth="yes"/>
      <point x="342" y="-60"/>
      <point x="370" y="-32"/>
      <point x="370" y="0" type="curve" smooth="yes"/>
      <point x="370" y="40" type="line" smooth="yes"/>
      <point x="370" y="46"/>
      <point x="368" y="55"/>
      <point x="367" y="60" type="curve" smooth="yes"/>
      <point x="167" y="620" type="line" smooth="yes"/>
      <point x="143" y="687"/>
      <point x="50" y="671"/>
      <point x="50" y="600" type="curve" smooth="yes"/>
      <point x="50" y="0" type="line" smooth="yes"/>
      <point x="50" y="-32"/>
      <point x="78" y="-60"/>
      <point x="110" y="-60" type="curve" smooth="yes"/>
      <point x="142" y="-60"/>
      <point x="170" y="-32"/>
      <point x="170" y="0" type="curve" smooth="yes"/>
      <point x="170" y="254" type="line"/>
      <point x="250" y="30" type="line"/>
      <point x="250" y="0" type="line" smooth="yes"/>
      <point x="250" y="-32"/>
      <point x="278" y="-60"/>
    </contour>
  </outline>
</glyph>
<glyph name="Agrave" format="1">
  <advance width="820"/>
  <unicode hex="00C0"/>
  <outline>
    <contour>
      <point x="460" y="895" type="curve" smooth="yes"/>
      <point x="478" y="922"/>
      <point x="470" y="960"/>
      <point x="443" y="978" type="curve" smooth="yes"/>
      <point x="143" y="1178" type="line" smooth="yes"/>
      <point x="116" y="1196"/>
      <point x="78" y="1188"/>
      <point x="60" y="1161" type="curve" smooth="yes"/>
      <point x="42" y="1134"/>
      <point x="50" y="1096"/>
      <point x="77" y="1078" type="curve" smooth="yes"/>
      <point x="377" y="878" type="line" smooth="yes"/>
      <point x="404" y="860"/>
      <point x="442" y="868"/>
    </contour>
    <contour>
      <point x="710" y="-64" type="curve" smooth="yes"/>
      <point x="742" y="-64"/>
      <point x="770" y="-36"/>
      <point x="770" y="-4" type="curve" smooth="yes"/>
      <point x="770" y="360" type="line" smooth="yes"/>
      <point x="770" y="373"/>
      <point x="763" y="392"/>
      <point x="754" y="401" type="curve" smooth="yes"/>
      <point x="352" y="837" type="line" smooth="yes"/>
      <point x="318" y="873"/>
      <point x="266" y="862"/>
      <point x="251" y="815" type="curve" smooth="yes"/>
      <point x="65" y="245" type="line" smooth="yes"/>
      <point x="50" y="197"/>
      <point x="86" y="157"/>
      <point x="134" y="167" type="curve" smooth="yes"/>
      <point x="650" y="273" type="line"/>
      <point x="650" y="-4" type="line" smooth="yes"/>
      <point x="650" y="-36"/>
      <point x="678" y="-64"/>
    </contour>
    <contour>
      <point x="211" y="305" type="line"/>
      <point x="333" y="680" type="line"/>
      <point x="605" y="386" type="line"/>
    </contour>
  </outline>
</glyph>
<glyph name="Aacute" format="1">
  <advance width="808"/>
  <unicode hex="00C1"/>
  <outline>
    <contour>
      <point x="348" y="895" type="curve" smooth="yes"/>
      <point x="366" y="868"/>
      <point x="404" y="860"/>
      <point x="431" y="878" type="curve" smooth="yes"/>
      <point x="731" y="1078" type="line" smooth="yes"/>
      <point x="758" y="1096"/>
      <point x="766" y="1134"/>
      <point x="748" y="1161" type="curve" smooth="yes"/>
      <point x="730" y="1188"/>
      <point x="692" y="1196"/>
      <point x="665" y="1178" type="curve" smooth="yes"/>
      <point x="365" y="978" type="line" smooth="yes"/>
      <point x="338" y="960"/>
      <point x="330" y="922"/>
    </contour>
    <contour>
      <point x="698" y="-64" type="curve" smooth="yes"/>
      <point x="730" y="-64"/>
      <point x="758" y="-36"/>
      <point x="758" y="-4" type="curve" smooth="yes"/>
      <point x="758" y="360" type="line" smooth="yes"/>
      <point x="758" y="373"/>
      <point x="751" y="392"/>
      <point x="742" y="401" type="curve" smooth="yes"/>
      <point x="340" y="837" type="line" smooth="yes"/>
      <point x="306" y="873"/>
      <point x="254" y="862"/>
      <point x="239" y="815" type="curve" smooth="yes"/>
      <point x="53" y="245" type="line" smooth="yes"/>
      <point x="38" y="197"/>
      <point x="74" y="157"/>
      <point x="122" y="167" type="curve" smooth="yes"/>
      <point x="638" y="273" type="line"/>
      <point x="638" y="-4" type="line" smooth="yes"/>
      <point x="638" y="-36"/>
      <point x="666" y="-64"/>
    </contour>
    <contour>
      <point x="199" y="305" type="line"/>
      <point x="321" y="680" type="line"/>
      <point x="593" y="386" type="line"/>
    </contour>
  </outline>
</glyph>
<glyph name="Acircumflex" format="1">
  <advance width="820"/>
  <unicode hex="00C2"/>
  <outline>
    <contour>
      <point x="50" y="928" type="curve" smooth="yes"/>
      <point x="50" y="896"/>
      <point x="78" y="868"/>
      <point x="110" y="868" type="curve" smooth="yes"/>
      <point x="710" y="868" type="line" smooth="yes"/>
      <point x="742" y="868"/>
      <point x="770" y="896"/>
      <point x="770" y="928" type="curve" smooth="yes"/>
      <point x="770" y="960"/>
      <point x="742" y="988"/>
      <point x="710" y="988" type="curve" smooth="yes"/>
      <point x="110" y="988" type="line" smooth="yes"/>
      <point x="78" y="988"/>
      <point x="50" y="960"/>
    </contour>
    <contour>
      <point x="710" y="-64" type="curve" smooth="yes"/>
      <point x="742" y="-64"/>
      <point x="770" y="-36"/>
      <point x="770" y="-4" type="curve" smooth="yes"/>
      <point x="770" y="360" type="line" smooth="yes"/>
      <point x="770" y="373"/>
      <point x="763" y="392"/>
      <point x="754" y="401" type="curve" smooth="yes"/>
      <point x="352" y="837" type="line" smooth="yes"/>
      <point x="318" y="873"/>
      <point x="266" y="862"/>
      <point x="251" y="815" type="curve" smooth="yes"/>
      <point x="65" y="245" type="line" smooth="yes"/>
      <point x="50" y="197"/>
      <point x="86" y="157"/>
      <point x="134" y="167" type="curve" smooth="yes"/>
      <point x="650" y="273" type="line"/>
      <point x="650" y="-4" type="line" smooth="yes"/>
      <point x="650" y="-36"/>
      <point x="678" y="-64"/>
    </contour>
    <contour>
      <point x="211" y="305" type="line"/>
      <point x="333" y="680" type="line"/>
      <point x="605" y="386" type="line"/>
    </contour>
  </outline>
</glyph>
<glyph name="Ccedilla" format="1">
  <advance width="814"/>
  <unicode hex="00C7"/>
  <outline>
    <contour>
      <point x="298" y="57" type="curve" smooth="yes"/>
      <point x="716" y="142" type="line" smooth="yes"/>
      <point x="748" y="149"/>
      <point x="769" y="181"/>
      <point x="763" y="213" type="curve" smooth="yes"/>
      <point x="756" y="245"/>
      <point x="724" y="266"/>
      <point x="692" y="260" type="curve" smooth="yes"/>
      <point x="327" y="186" type="line"/>
      <point x="195" y="614" type="line"/>
      <point x="695" y="542" type="line" smooth="yes"/>
      <point x="727" y="537"/>
      <point x="759" y="560"/>
      <point x="763" y="592" type="curve" smooth="yes"/>
      <point x="768" y="624"/>
      <point x="745" y="656"/>
      <point x="713" y="660" type="curve" smooth="yes"/>
      <point x="119" y="746" type="line" smooth="yes"/>
      <point x="72" y="753"/>
      <point x="39" y="715"/>
      <point x="53" y="669" type="curve" smooth="yes"/>
      <point x="229" y="99" type="line" smooth="yes"/>
      <point x="237" y="70"/>
      <point x="268" y="51"/>
    </contour>
  </outline>
</glyph>
<glyph name="Egrave" format="1">
  <advance width="824"/>
  <unicode hex="00C8"/>
  <outline>
    <contour>
      <point x="460" y="895" type="curve" smooth="yes"/>
      <point x="478" y="922"/>
      <point x="470" y="960"/>
      <point x="443" y="978" type="curve" smooth="yes"/>
      <point x="143" y="1178" type="line" smooth="yes"/>
      <point x="116" y="1196"/>
      <point x="78" y="1188"/>
      <point x="60" y="1161" type="curve" smooth="yes"/>
      <point x="42" y="1134"/>
      <point x="50" y="1096"/>
      <point x="77" y="1078" type="curve" smooth="yes"/>
      <point x="377" y="878" type="line" smooth="yes"/>
      <point x="404" y="860"/>
      <point x="442" y="868"/>
    </contour>
    <contour>
      <point x="559" y="-43" type="curve" smooth="yes"/>
      <point x="757" y="153" type="line" smooth="yes"/>
      <point x="780" y="176"/>
      <point x="780" y="215"/>
      <point x="758" y="238" type="curve" smooth="yes"/>
      <point x="735" y="261"/>
      <point x="696" y="261"/>
      <point x="673" y="239" type="curve" smooth="yes"/>
      <point x="517" y="84" type="line"/>
      <point x="270" y="338" type="line"/>
      <point x="739" y="547" type="line" smooth="yes"/>
      <point x="768" y="560"/>
      <point x="782" y="597"/>
      <point x="769" y="627" type="curve" smooth="yes"/>
      <point x="756" y="656"/>
      <point x="719" y="670"/>
      <point x="689" y="657" type="curve" smooth="yes"/>
      <point x="143" y="412" type="line" smooth="yes"/>
      <point x="102" y="394"/>
      <point x="93" y="347"/>
      <point x="124" y="315" type="curve" smooth="yes"/>
      <point x="472" y="-42" type="line" smooth="yes"/>
      <point x="484" y="-54"/>
      <point x="499" y="-60"/>
      <point x="515" y="-60" type="curve"/>
      <point x="531" y="-60"/>
      <point x="547" y="-54"/>
    </contour>
  </outline>
</glyph>
<glyph name="Eacute" format="1">
  <advance width="769"/>
  <unicode hex="00C9"/>
  <outline>
    <contour>
      <point x="305" y="895" type="curve" smooth="yes"/>
      <point x="323" y="868"/>
      <point x="361" y="860"/>
      <point x="388" y="878" type="curve" smooth="yes"/>
      <point x="688" y="1078" type="line" smooth="yes"/>
      <point x="715" y="1096"/>
      <point x="723" y="1134"/>
      <point x="705" y="1161" type="curve" smooth="yes"/>
      <point x="687" y="1188"/>
      <point x="649" y="1196"/>
      <point x="622" y="1178" type="curve" smooth="yes"/>
      <point x="322" y="978" type="line" smooth="yes"/>
      <point x="295" y="960"/>
      <point x="287" y="922"/>
    </contour>
    <contour>
      <point x="504" y="-43" type="curve" smooth="yes"/>
      <point x="702" y="153" type="line" smooth="yes"/>
      <point x="725" y="176"/>
      <point x="725" y="215"/>
      <point x="703" y="238" type="curve" smooth="yes"/>
      <point x="680" y="261"/>
      <point x="641" y="261"/>
      <point x="618" y="239" type="curve" smooth="yes"/>
      <point x="462" y="84" type="line"/>
      <point x="215" y="338" type="line"/>
      <point x="684" y="547" type="line" smooth="yes"/>
      <point x="713" y="560"/>
      <point x="727" y="597"/>
      <point x="714" y="627" type="curve" smooth="yes"/>
      <point x="701" y="656"/>
      <point x="664" y="670"/>
      <point x="634" y="657" type="curve" smooth="yes"/>
      <point x="88" y="412" type="line" smooth="yes"/>
      <point x="47" y="394"/>
      <point x="38" y="347"/>
      <point x="69" y="315" type="curve" smooth="yes"/>
      <point x="417" y="-42" type="line" smooth="yes"/>
      <point x="429" y="-54"/>
      <point x="444" y="-60"/>
      <point x="460" y="-60" type="curve"/>
      <point x="476" y="-60"/>
      <point x="492" y="-54"/>
    </contour>
  </outline>
</glyph>
<glyph name="Ecircumflex" format="1">
  <advance width="824"/>
  <unicode hex="00CA"/>
  <outline>
    <contour>
      <point x="50" y="928" type="curve" smooth="yes"/>
      <point x="50" y="896"/>
      <point x="78" y="868"/>
      <point x="110" y="868" type="curve" smooth="yes"/>
      <point x="710" y="868" type="line" smooth="yes"/>
      <point x="742" y="868"/>
      <point x="770" y="896"/>
      <point x="770" y="928" type="curve" smooth="yes"/>
      <point x="770" y="960"/>
      <point x="742" y="988"/>
      <point x="710" y="988" type="curve" smooth="yes"/>
      <point x="110" y="988" type="line" smooth="yes"/>
      <point x="78" y="988"/>
      <point x="50" y="960"/>
    </contour>
    <contour>
      <point x="559" y="-43" type="curve" smooth="yes"/>
      <point x="757" y="153" type="line" smooth="yes"/>
      <point x="780" y="176"/>
      <point x="780" y="215"/>
      <point x="758" y="238" type="curve" smooth="yes"/>
      <point x="735" y="261"/>
      <point x="696" y="261"/>
      <point x="673" y="239" type="curve" smooth="yes"/>
      <point x="517" y="84" type="line"/>
      <point x="270" y="338" type="line"/>
      <point x="739" y="547" type="line" smooth="yes"/>
      <point x="768" y="560"/>
      <point x="782" y="597"/>
      <point x="769" y="627" type="curve" smooth="yes"/>
      <point x="756" y="656"/>
      <point x="719" y="670"/>
      <point x="689" y="657" type="curve" smooth="yes"/>
      <point x="143" y="412" type="line" smooth="yes"/>
      <point x="102" y="394"/>
      <point x="93" y="347"/>
      <point x="124" y="315" type="curve" smooth="yes"/>
      <point x="472" y="-42" type="line" smooth="yes"/>
      <point x="484" y="-54"/>
      <point x="499" y="-60"/>
      <point x="515" y="-60" type="curve"/>
      <point x="531" y="-60"/>
      <point x="547" y="-54"/>
    </contour>
  </outline>
</glyph>
<glyph name="Ntilde" format="1">
  <advance width="824"/>
  <unicode hex="00D1"/>
  <outline>
    <contour>
      <point x="124" y="869" type="curve" smooth="yes"/>
      <point x="712" y="969" type="line" smooth="yes"/>
      <point x="737" y="973"/>
      <point x="759" y="996"/>
      <point x="762" y="1021" type="curve" smooth="yes"/>
      <point x="774" y="1121" type="line" smooth="yes"/>
      <point x="777" y="1153"/>
      <point x="753" y="1184"/>
      <point x="721" y="1188" type="curve" smooth="yes"/>
      <point x="689" y="1191"/>
      <point x="658" y="1167"/>
      <point x="654" y="1135" type="curve" smooth="yes"/>
      <point x="648" y="1080" type="line"/>
      <point x="104" y="987" type="line" smooth="yes"/>
      <point x="72" y="982"/>
      <point x="49" y="950"/>
      <point x="55" y="918" type="curve" smooth="yes"/>
      <point x="60" y="886"/>
      <point x="92" y="863"/>
    </contour>
    <contour>
      <point x="170" y="-1" type="curve" smooth="yes"/>
      <point x="170" y="164" type="line"/>
      <point x="398" y="583" type="line"/>
      <point x="659" y="167" type="line" smooth="yes"/>
      <point x="694" y="112"/>
      <point x="770" y="134"/>
      <point x="770" y="199" type="curve" smooth="yes"/>
      <point x="770" y="799" type="line" smooth="yes"/>
      <point x="770" y="831"/>
      <point x="742" y="859"/>
      <point x="710" y="859" type="curve" smooth="yes"/>
      <point x="678" y="859"/>
      <point x="650" y="831"/>
      <point x="650" y="799" type="curve" smooth="yes"/>
      <point x="650" y="407" type="line"/>
      <point x="445" y="734" type="line" smooth="yes"/>
      <point x="419" y="776"/>
      <point x="365" y="774"/>
      <point x="342" y="731" type="curve" smooth="yes"/>
      <point x="57" y="208" type="line" smooth="yes"/>
      <point x="53" y="200"/>
      <point x="50" y="187"/>
      <point x="50" y="179" type="curve" smooth="yes"/>
      <point x="50" y="-1" type="line" smooth="yes"/>
      <point x="50" y="-33"/>
      <point x="78" y="-61"/>
      <point x="110" y="-61" type="curve" smooth="yes"/>
      <point x="142" y="-61"/>
      <point x="170" y="-33"/>
    </contour>
  </outline>
</glyph>
<glyph name="Ocircumflex" format="1">
  <advance width="821"/>
  <unicode hex="00D4"/>
  <outline>
    <contour>
      <point x="50" y="928" type="curve" smooth="yes"/>
      <point x="50" y="896"/>
      <point x="78" y="868"/>
      <point x="110" y="868" type="curve" smooth="yes"/>
      <point x="710" y="868" type="line" smooth="yes"/>
      <point x="742" y="868"/>
      <point x="770" y="896"/>
      <point x="770" y="928" type="curve" smooth="yes"/>
      <point x="770" y="960"/>
      <point x="742" y="988"/>
      <point x="710" y="988" type="curve" smooth="yes"/>
      <point x="110" y="988" type="line" smooth="yes"/>
      <point x="78" y="988"/>
      <point x="50" y="960"/>
    </contour>
    <contour>
      <point x="571" y="-21" type="curve" smooth="yes"/>
      <point x="768" y="539" type="line" smooth="yes"/>
      <point x="779" y="571"/>
      <point x="762" y="606"/>
      <point x="729" y="616" type="curve" smooth="yes"/>
      <point x="158" y="794" type="line" smooth="yes"/>
      <point x="118" y="806"/>
      <point x="82" y="780"/>
      <point x="80" y="739" type="curve" smooth="yes"/>
      <point x="53" y="143" type="line" smooth="yes"/>
      <point x="52" y="118"/>
      <point x="70" y="92"/>
      <point x="93" y="83" type="curve" smooth="yes"/>
      <point x="484" y="-57" type="line" smooth="yes"/>
      <point x="492" y="-60"/>
      <point x="500" y="-61"/>
      <point x="508" y="-61" type="curve"/>
      <point x="535" y="-63"/>
      <point x="561" y="-47"/>
    </contour>
    <contour>
      <point x="476" y="73" type="line"/>
      <point x="175" y="181" type="line"/>
      <point x="196" y="656" type="line"/>
      <point x="634" y="520" type="line"/>
    </contour>
  </outline>
</glyph>
<glyph name="Otilde" format="1">
  <advance width="821"/>
  <unicode hex="00D5"/>
  <outline>
    <contour>
      <point x="120" y="869" type="curve" smooth="yes"/>
      <point x="708" y="969" type="line" smooth="yes"/>
      <point x="733" y="973"/>
      <point x="755" y="996"/>
      <point x="758" y="1021" type="curve" smooth="yes"/>
      <point x="770" y="1121" type="line" smooth="yes"/>
      <point x="773" y="1153"/>
      <point x="749" y="1184"/>
      <point x="717" y="1188" type="curve" smooth="yes"/>
      <point x="685" y="1191"/>
      <point x="654" y="1167"/>
      <point x="650" y="1135" type="curve" smooth="yes"/>
      <point x="644" y="1080" type="line"/>
      <point x="100" y="987" type="line" smooth="yes"/>
      <point x="68" y="982"/>
      <point x="45" y="950"/>
      <point x="51" y="918" type="curve" smooth="yes"/>
      <point x="56" y="886"/>
      <point x="88" y="863"/>
    </contour>
    <contour>
      <point x="571" y="-21" type="curve" smooth="yes"/>
      <point x="768" y="539" type="line" smooth="yes"/>
      <point x="779" y="571"/>
      <point x="762" y="606"/>
      <point x="729" y="616" type="curve" smooth="yes"/>
      <point x="158" y="794" type="line" smooth="yes"/>
      <point x="118" y="806"/>
      <point x="82" y="780"/>
      <point x="80" y="739" type="curve" smooth="yes"/>
      <point x="53" y="143" type="line" smooth="yes"/>
      <point x="52" y="118"/>
      <point x="70" y="92"/>
      <point x="93" y="83" type="curve" smooth="yes"/>
      <point x="484" y="-57" type="line" smooth="yes"/>
      <point x="492" y="-60"/>
      <point x="500" y="-61"/>
      <point x="508" y="-61" type="curve"/>
      <point x="535" y="-63"/>
      <point x="561" y="-47"/>
    </contour>
    <contour>
      <point x="476" y="73" type="line"/>
      <point x="175" y="181" type="line"/>
      <point x="196" y="656" type="line"/>
      <point x="634" y="520" type="line"/>
    </contour>
  </outline>
</glyph>
<glyph name="Oslash" format="1">
  <advance width="821"/>
  <unicode hex="00D8"/>
  <outline>
    <contour>
      <point x="242" y="275" type="line"/>
      <point x="214" y="287" type="line"/>
      <point x="398" y="483" type="line"/>
    </contour>
    <contour>
      <point x="448" y="187" type="line"/>
      <point x="355" y="226" type="line"/>
      <point x="451" y="355" type="line"/>
    </contour>
    <contour>
      <point x="159" y="-35" type="curve" smooth="yes"/>
      <point x="281" y="128" type="line"/>
      <point x="472" y="46" type="line" smooth="yes"/>
      <point x="481" y="42"/>
      <point x="490" y="41"/>
      <point x="499" y="41" type="curve"/>
      <point x="501" y="41"/>
      <point x="503" y="41"/>
      <point x="505" y="41" type="curve" smooth="yes"/>
      <point x="537" y="40"/>
      <point x="565" y="67"/>
      <point x="566" y="100" type="curve" smooth="yes"/>
      <point x="575" y="520" type="line"/>
      <point x="759" y="765" type="line" smooth="yes"/>
      <point x="778" y="791"/>
      <point x="773" y="830"/>
      <point x="747" y="849" type="curve" smooth="yes"/>
      <point x="721" y="868"/>
      <point x="682" y="863"/>
      <point x="663" y="837" type="curve" smooth="yes"/>
      <point x="576" y="721" type="line"/>
      <point x="564" y="765"/>
      <point x="511" y="780"/>
      <point x="475" y="742" type="curve" smooth="yes"/>
      <point x="68" y="306" type="line" smooth="yes"/>
      <point x="37" y="274"/>
      <point x="47" y="228"/>
      <point x="88" y="210" type="curve" smooth="yes"/>
      <point x="167" y="176" type="line"/>
      <point x="63" y="37" type="line" smooth="yes"/>
      <point x="44" y="11"/>
      <point x="49" y="-28"/>
      <point x="75" y="-47" type="curve" smooth="yes"/>
      <point x="101" y="-66"/>
      <point x="140" y="-61"/>
    </contour>
  </outline>
</glyph>
<glyph name="Ugrave" format="1">
  <advance width="819"/>
  <unicode hex="00D9"/>
  <outline>
    <contour>
      <point x="461" y="895" type="curve" smooth="yes"/>
      <point x="479" y="922"/>
      <point x="471" y="960"/>
      <point x="444" y="978" type="curve" smooth="yes"/>
      <point x="144" y="1178" type="line" smooth="yes"/>
      <point x="117" y="1196"/>
      <point x="79" y="1188"/>
      <point x="61" y="1161" type="curve" smooth="yes"/>
      <point x="43" y="1134"/>
      <point x="51" y="1096"/>
      <point x="78" y="1078" type="curve" smooth="yes"/>
      <point x="378" y="878" type="line" smooth="yes"/>
      <point x="405" y="860"/>
      <point x="443" y="868"/>
    </contour>
    <contour>
      <point x="769" y="199" type="curve" smooth="yes"/>
      <point x="769" y="799" type="line" smooth="yes"/>
      <point x="769" y="831"/>
      <point x="741" y="859"/>
      <point x="709" y="859" type="curve" smooth="yes"/>
      <point x="677" y="859"/>
      <point x="649" y="831"/>
      <point x="649" y="799" type="curve" smooth="yes"/>
      <point x="649" y="262" type="line"/>
      <point x="170" y="286" type="line"/>
      <point x="170" y="799" type="line" smooth="yes"/>
      <point x="170" y="831"/>
      <point x="142" y="859"/>
      <point x="110" y="859" type="curve" smooth="yes"/>
      <point x="78" y="859"/>
      <point x="50" y="831"/>
      <point x="50" y="799" type="curve" smooth="yes"/>
      <point x="50" y="229" type="line" smooth="yes"/>
      <point x="50" y="197"/>
      <point x="76" y="171"/>
      <point x="107" y="169" type="curve" smooth="yes"/>
      <point x="706" y="139" type="line" smooth="yes"/>
      <point x="741" y="137"/>
      <point x="769" y="164"/>
    </contour>
  </outline>
</glyph>
<glyph name="atilde" format="1">
  <advance width="820"/>
  <unicode hex="00E3"/>
  <outline>
    <contour>
      <point x="120" y="869" type="curve" smooth="yes"/>
      <point x="708" y="969" type="line" smooth="yes"/>
      <point x="733" y="973"/>
      <point x="755" y="996"/>
      <point x="758" y="1021" type="curve" smooth="yes"/>
      <point x="770" y="1121" type="line" smooth="yes"/>
      <point x="773" y="1153"/>
      <point x="749" y="1184"/>
      <point x="717" y="1188" type="curve" smooth="yes"/>
      <point x="685" y="1191"/>
      <point x="654" y="1167"/>
      <point x="650" y="1135" type="curve" smooth="yes"/>
      <point x="644" y="1080" type="line"/>
      <point x="100" y="987" type="line" smooth="yes"/>
      <point x="68" y="982"/>
      <point x="45" y="950"/>
      <point x="51" y="918" type="curve" smooth="yes"/>
      <point x="56" y="886"/>
      <point x="88" y="863"/>
    </contour>
    <contour>
      <point x="710" y="-64" type="curve" smooth="yes"/>
      <point x="742" y="-64"/>
      <point x="770" y="-36"/>
      <point x="770" y="-4" type="curve" smooth="yes"/>
      <point x="770" y="360" type="line" smooth="yes"/>
      <point x="770" y="373"/>
      <point x="763" y="392"/>
      <point x="754" y="401" type="curve" smooth="yes"/>
      <point x="352" y="837" type="line" smooth="yes"/>
      <point x="318" y="873"/>
      <point x="266" y="862"/>
      <point x="251" y="815" type="curve" smooth="yes"/>
      <point x="65" y="245" type="line" smooth="yes"/>
      <point x="50" y="197"/>
      <point x="86" y="157"/>
      <point x="134" y="167" type="curve" smooth="yes"/>
      <point x="650" y="273" type="line"/>
      <point x="650" y="-4" type="line" smooth="yes"/>
      <point x="650" y="-36"/>
      <point x="678" y="-64"/>
    </contour>
    <contour>
      <point x="211" y="305" type="line"/>
      <point x="333" y="680" type="line"/>
      <point x="605" y="386" type="line"/>
    </contour>
  </outline>
</glyph>
<glyph name="igrave" format="1">
  <advance width="819"/>
  <unicode hex="00EC"/>
  <outline>
    <contour>
      <point x="464" y="895" type="curve" smooth="yes"/>
      <point x="482" y="922"/>
      <point x="474" y="960"/>
      <point x="447" y="978" type="curve" smooth="yes"/>
      <point x="147" y="1178" type="line" smooth="yes"/>
      <point x="120" y="1196"/>
      <point x="82" y="1188"/>
      <point x="64" y="1161" type="curve" smooth="yes"/>
      <point x="46" y="1134"/>
      <point x="54" y="1096"/>
      <point x="81" y="1078" type="curve" smooth="yes"/>
      <point x="381" y="878" type="line" smooth="yes"/>
      <point x="408" y="860"/>
      <point x="446" y="868"/>
    </contour>
    <contour>
      <point x="162" y="-31" type="curve" smooth="yes"/>
      <point x="458" y="472" type="line"/>
      <point x="752" y="756" type="line" smooth="yes"/>
      <point x="775" y="778"/>
      <point x="776" y="817"/>
      <point x="753" y="841" type="curve" smooth="yes"/>
      <point x="731" y="864"/>
      <point x="692" y="865"/>
      <point x="668" y="842" type="curve" smooth="yes"/>
      <point x="368" y="553" type="line" smooth="yes"/>
      <point x="365" y="550"/>
      <point x="361" y="544"/>
      <point x="358" y="540" type="curve" smooth="yes"/>
      <point x="58" y="29" type="line" smooth="yes"/>
      <point x="42" y="1"/>
      <point x="52" y="-36"/>
      <point x="80" y="-53" type="curve" smooth="yes"/>
      <point x="108" y="-69"/>
      <point x="145" y="-59"/>
    </contour>
  </outline>
</glyph>
<glyph name="iacute" format="1">
  <advance width="823"/>
  <unicode hex="00ED"/>
  <outline>
    <contour>
      <point x="364" y="895" type="curve" smooth="yes"/>
      <point x="382" y="868"/>
      <point x="420" y="860"/>
      <point x="447" y="878" type="curve" smooth="yes"/>
      <point x="747" y="1078" type="line" smooth="yes"/>
      <point x="774" y="1096"/>
      <point x="782" y="1134"/>
      <point x="764" y="1161" type="curve" smooth="yes"/>
      <point x="746" y="1188"/>
      <point x="708" y="1196"/>
      <point x="681" y="1178" type="curve" smooth="yes"/>
      <point x="381" y="978" type="line" smooth="yes"/>
      <point x="354" y="960"/>
      <point x="346" y="922"/>
    </contour>
    <contour>
      <point x="162" y="-31" type="curve" smooth="yes"/>
      <point x="458" y="472" type="line"/>
      <point x="752" y="756" type="line" smooth="yes"/>
      <point x="775" y="778"/>
      <point x="776" y="817"/>
      <point x="753" y="841" type="curve" smooth="yes"/>
      <point x="731" y="864"/>
      <point x="692" y="865"/>
      <point x="668" y="842" type="curve" smooth="yes"/>
      <point x="368" y="553" type="line" smooth="yes"/>
      <point x="365" y="550"/>
      <point x="361" y="544"/>
      <point x="358" y="540" type="curve" smooth="yes"/>
      <point x="58" y="29" type="line" smooth="yes"/>
      <point x="42" y="1"/>
      <point x="52" y="-36"/>
      <point x="80" y="-53" type="curve" smooth="yes"/>
      <point x="108" y="-69"/>
      <point x="145" y="-59"/>
    </contour>
  </outline>
</glyph>
<glyph name="icircumflex" format="1">
  <advance width="824"/>
  <unicode hex="00EE"/>
  <outline>
    <contour>
      <point x="54" y="928" type="curve" smooth="yes"/>
      <point x="54" y="896"/>
      <point x="82" y="868"/>
      <point x="114" y="868" type="curve" smooth="yes"/>
      <point x="714" y="868" type="line" smooth="yes"/>
      <point x="746" y="868"/>
      <point x="774" y="896"/>
      <point x="774" y="928" type="curve" smooth="yes"/>
      <point x="774" y="960"/>
      <point x="746" y="988"/>
      <point x="714" y="988" type="curve" smooth="yes"/>
      <point x="114" y="988" type="line" smooth="yes"/>
      <point x="82" y="988"/>
      <point x="54" y="960"/>
    </contour>
    <contour>
      <point x="162" y="-31" type="curve" smooth="yes"/>
      <point x="458" y="472" type="line"/>
      <point x="752" y="756" type="line" smooth="yes"/>
      <point x="775" y="778"/>
      <point x="776" y="817"/>
      <point x="753" y="841" type="curve" smooth="yes"/>
      <point x="731" y="864"/>
      <point x="692" y="865"/>
      <point x="668" y="842" type="curve" smooth="yes"/>
      <point x="368" y="553" type="line" smooth="yes"/>
      <point x="365" y="550"/>
      <point x="361" y="544"/>
      <point x="358" y="540" type="curve" smooth="yes"/>
      <point x="58" y="29" type="line" smooth="yes"/>
      <point x="42" y="1"/>
      <point x="52" y="-36"/>
      <point x="80" y="-53" type="curve" smooth="yes"/>
      <point x="108" y="-69"/>
      <point x="145" y="-59"/>
    </contour>
  </outline>
</glyph>
<glyph name="oacute" format="1">
  <advance width="818"/>
  <unicode hex="00F3"/>
  <outline>
    <contour>
      <point x="357" y="895" type="curve" smooth="yes"/>
      <point x="375" y="868"/>
      <point x="413" y="860"/>
      <point x="440" y="878" type="curve" smooth="yes"/>
      <point x="740" y="1078" type="line" smooth="yes"/>
      <point x="767" y="1096"/>
      <point x="775" y="1134"/>
      <point x="757" y="1161" type="curve" smooth="yes"/>
      <point x="739" y="1188"/>
      <point x="701" y="1196"/>
      <point x="674" y="1178" type="curve" smooth="yes"/>
      <point x="374" y="978" type="line" smooth="yes"/>
      <point x="347" y="960"/>
      <point x="339" y="922"/>
    </contour>
    <contour>
      <point x="568" y="-21" type="curve" smooth="yes"/>
      <point x="765" y="539" type="line" smooth="yes"/>
      <point x="776" y="571"/>
      <point x="759" y="606"/>
      <point x="726" y="616" type="curve" smooth="yes"/>
      <point x="155" y="794" type="line" smooth="yes"/>
      <point x="115" y="806"/>
      <point x="79" y="780"/>
      <point x="77" y="739" type="curve" smooth="yes"/>
      <point x="50" y="143" type="line" smooth="yes"/>
      <point x="49" y="118"/>
      <point x="67" y="92"/>
      <point x="90" y="83" type="curve" smooth="yes"/>
      <point x="481" y="-57" type="line" smooth="yes"/>
      <point x="489" y="-60"/>
      <point x="497" y="-61"/>
      <point x="505" y="-61" type="curve"/>
      <point x="532" y="-63"/>
      <point x="558" y="-47"/>
    </contour>
    <contour>
      <point x="473" y="73" type="line"/>
      <point x="172" y="181" type="line"/>
      <point x="193" y="656" type="line"/>
      <point x="631" y="520" type="line"/>
    </contour>
  </outline>
</glyph>
<glyph name="uacute" format="1">
  <advance width="821"/>
  <unicode hex="00FA"/>
  <outline>
    <contour>
      <point x="361" y="895" type="curve" smooth="yes"/>
      <point x="379" y="868"/>
      <point x="417" y="860"/>
      <point x="444" y="878" type="curve" smooth="yes"/>
      <point x="744" y="1078" type="line" smooth="yes"/>
      <point x="771" y="1096"/>
      <point x="779" y="1134"/>
      <point x="761" y="1161" type="curve" smooth="yes"/>
      <point x="743" y="1188"/>
      <point x="705" y="1196"/>
      <point x="678" y="1178" type="curve" smooth="yes"/>
      <point x="378" y="978" type="line" smooth="yes"/>
      <point x="351" y="960"/>
      <point x="343" y="922"/>
    </contour>
    <contour>
      <point x="769" y="199" type="curve" smooth="yes"/>
      <point x="769" y="799" type="line" smooth="yes"/>
      <point x="769" y="831"/>
      <point x="741" y="859"/>
      <point x="709" y="859" type="curve" smooth="yes"/>
      <point x="677" y="859"/>
      <point x="649" y="831"/>
      <point x="649" y="799" type="curve" smooth="yes"/>
      <point x="649" y="262" type="line"/>
      <point x="170" y="286" type="line"/>
      <point x="170" y="799" type="line" smooth="yes"/>
      <point x="170" y="831"/>
      <point x="142" y="859"/>
      <point x="110" y="859" type="curve" smooth="yes"/>
      <point x="78" y="859"/>
      <point x="50" y="831"/>
      <point x="50" y="799" type="curve" smooth="yes"/>
      <point x="50" y="229" type="line" smooth="yes"/>
      <point x="50" y="197"/>
      <point x="76" y="171"/>
      <point x="107" y="169" type="curve" smooth="yes"/>
      <point x="706" y="139" type="line" smooth="yes"/>
      <point x="741" y="137"/>
      <point x="769" y="164"/>
    </contour>
  </outline>
</glyph>
<glyph name="ucircumflex" format="1">
  <advance width="821"/>
  <unicode hex="00FB"/>
  <outline>
    <contour>
      <point x="51" y="928" type="curve" smooth="yes"/>
      <point x="51" y="896"/>
      <point x="79" y="868"/>
      <point x="111" y="868" type="curve" smooth="yes"/>
      <point x="711" y="868" type="line" smooth="yes"/>
      <point x="743" y="868"/>
      <point x="771" y="896"/>
      <point x="771" y="928" type="curve" smooth="yes"/>
      <point x="771" y="960"/>
      <point x="743" y="988"/>
      <point x="711" y="988" type="curve" smooth="yes"/>
      <point x="111" y="988" type="line" smooth="yes"/>
      <point x="79" y="988"/>
      <point x="51" y="960"/>
    </contour>
    <contour>
      <point x="769" y="199" type="curve" smooth="yes"/>
      <point x="769" y="799" type="line" smooth="yes"/>
      <point x="769" y="831"/>
      <point x="741" y="859"/>
      <point x="709" y="859" type="curve" smooth="yes"/>
      <point x="677" y="859"/>
      <point x="649" y="831"/>
      <point x="649" y="799" type="curve" smooth="yes"/>
      <point x="649" y="262" type="line"/>
      <point x="170" y="286" type="line"/>
      <point x="170" y="799" type="line" smooth="yes"/>
      <point x="170" y="831"/>
      <point x="142" y="859"/>
      <point x="110" y="859" type="curve" smooth="yes"/>
      <point x="78" y="859"/>
      <point x="50" y="831"/>
      <point x="50" y="799" type="curve" smooth="yes"/>
      <point x="50" y="229" type="line" smooth="yes"/>
      <point x="50" y="197"/>
      <point x="76" y="171"/>
      <point x="107" y="169" type="curve" smooth="yes"/>
      <point x="706" y="139" type="line" smooth="yes"/>
      <point x="741" y="137"/>
      <point x="769" y="164"/>
    </contour>
  </outline>
</glyph>
<glyph name="tilde" format="1">
  <advance width="820"/>
  <unicode hex="02DC"/>
  <outline>
    <contour>
      <point x="120" y="869" type="curve" smooth="yes"/>
      <point x="708" y="969" type="line" smooth="yes"/>
      <point x="733" y="973"/>
      <point x="755" y="996"/>
      <point x="758" y="1021" type="curve" smooth="yes"/>
      <point x="770" y="1121" type="line" smooth="yes"/>
      <point x="773" y="1153"/>
      <point x="749" y="1184"/>
      <point x="717" y="1188" type="curve" smooth="yes"/>
      <point x="685" y="1191"/>
      <point x="654" y="1167"/>
      <point x="650" y="1135" type="curve" smooth="yes"/>
      <point x="644" y="1080" type="line"/>
      <point x="100" y="987" type="line" smooth="yes"/>
      <point x="68" y="982"/>
      <point x="45" y="950"/>
      <point x="51" y="918" type="curve" smooth="yes"/>
      <point x="56" y="886"/>
      <point x="88" y="863"/>
    </contour>
  </outline>
</glyph>
<glyph name="quoteleft" format="1">
  <advance width="320"/>
  <unicode hex="2018"/>
  <outline>
    <contour>
      <point x="83" y="550" type="curve" smooth="yes"/>
      <point x="112" y="536"/>
      <point x="149" y="548"/>
      <point x="164" y="577" type="curve" smooth="yes"/>
      <point x="264" y="777" type="line" smooth="yes"/>
      <point x="278" y="806"/>
      <point x="266" y="843"/>
      <point x="237" y="858" type="curve" smooth="yes"/>
      <point x="208" y="872"/>
      <point x="171" y="860"/>
      <point x="156" y="831" type="curve" smooth="yes"/>
      <point x="56" y="631" type="line" smooth="yes"/>
      <point x="42" y="602"/>
      <point x="54" y="565"/>
    </contour>
  </outline>
</glyph>
<glyph name="quotesinglbase" format="1">
  <advance width="320"/>
  <unicode hex="201A"/>
  <outline>
    <contour>
      <point x="237" y="189" type="curve" smooth="yes"/>
      <point x="208" y="203"/>
      <point x="171" y="191"/>
      <point x="156" y="162" type="curve" smooth="yes"/>
      <point x="56" y="-38" type="line" smooth="yes"/>
      <point x="42" y="-67"/>
      <point x="54" y="-104"/>
      <point x="83" y="-119" type="curve" smooth="yes"/>
      <point x="112" y="-133"/>
      <point x="149" y="-121"/>
      <point x="164" y="-92" type="curve" smooth="yes"/>
      <point x="264" y="108" type="line" smooth="yes"/>
      <point x="278" y="137"/>
      <point x="266" y="174"/>
    </contour>
  </outline>
</glyph>
<glyph name="quotedblright" format="1">
  <advance width="420"/>
  <unicode hex="201D"/>
  <outline>
    <contour>
      <point x="264" y="572" type="curve" smooth="yes"/>
      <point x="364" y="772" type="line" smooth="yes"/>
      <point x="378" y="801"/>
      <point x="366" y="838"/>
      <point x="337" y="853" type="curve" smooth="yes"/>
      <point x="310" y="866"/>
      <point x="276" y="856"/>
      <point x="260" y="832" type="curve"/>
      <point x="254" y="841"/>
      <point x="246" y="848"/>
      <point x="237" y="853" type="curve" smooth="yes"/>
      <point x="208" y="867"/>
      <point x="171" y="855"/>
      <point x="156" y="826" type="curve" smooth="yes"/>
      <point x="56" y="626" type="line" smooth="yes"/>
      <point x="42" y="597"/>
      <point x="54" y="560"/>
      <point x="83" y="545" type="curve" smooth="yes"/>
      <point x="110" y="532"/>
      <point x="144" y="542"/>
      <point x="160" y="566" type="curve"/>
      <point x="166" y="557"/>
      <point x="174" y="550"/>
      <point x="183" y="545" type="curve" smooth="yes"/>
      <point x="212" y="531"/>
      <point x="249" y="543"/>
    </contour>
  </outline>
</glyph>
